<svg width="24" height="25" viewBox="0 0 24 25" fill="none" xmlns="http://www.w3.org/2000/svg">
<g clip-path="url(#clip0_102_12)">
<path d="M21.4286 0.691162C18.8572 0.691162 2.57151 0.691162 2.57151 0.691162C1.78219 0.691162 0.749934 0.702332 7.23914e-07 0.702334C-9.2252e-06 1.07733 8.66661e-05 2.60728 8.66661e-05 3.22949L8.66661e-05 21.8439C8.66661e-05 22.5783 0 23.9522 0.000234969 24.7022C0.750242 24.7022 1.76197 24.7022 2.43769 24.7022L21.4286 24.7022C22.1401 24.7022 23.4161 24.7022 23.9999 24.7022C23.9998 24.1096 24 22.543 24 21.8439C24 21.8439 24 5.76782 24 3.22949C24 1.94792 24 1.07255 24 0.702332C23.25 0.702371 22.7017 0.691162 21.4286 0.691162ZM14.8554 20.9819C14.4054 21.0613 14.2393 20.7863 14.2393 20.5589C14.2393 20.2733 14.25 18.8138 14.25 17.6345C14.25 16.8096 13.9715 16.286 13.6447 16.011C15.6268 15.7942 17.7161 15.5245 17.7161 12.1454C17.7161 11.1829 17.3679 10.7017 16.8 10.083C16.8911 9.85559 17.1965 8.91959 16.709 7.7033C15.9643 7.47591 14.2608 8.64989 14.2608 8.64989C13.5536 8.45422 12.7875 8.35375 12.0322 8.35375C11.2768 8.35375 10.5108 8.45422 9.80362 8.64989C9.80362 8.64989 8.10006 7.47591 7.35542 7.7033C6.86792 8.9143 7.16792 9.85031 7.26435 10.083C6.69649 10.7017 6.42864 11.1829 6.42864 12.1454C6.42864 15.5087 8.42684 15.7942 10.409 16.011C10.1518 16.2384 9.92148 16.6298 9.84112 17.1903C9.3322 17.4177 8.03042 17.809 7.25363 16.4553C6.76613 15.6197 5.88757 15.551 5.88757 15.551C5.01971 15.5404 5.82864 16.0904 5.82864 16.0904C6.40721 16.3548 6.81435 17.3701 6.81435 17.3701C7.33399 18.9407 9.8197 18.4119 9.8197 18.4119C9.8197 19.1469 9.83041 20.3421 9.83041 20.5589C9.83041 20.7863 9.6697 21.0613 9.21434 20.9819C5.67864 19.8133 3.20365 16.4923 3.20365 12.6107C3.20365 7.75618 6.96435 4.07032 11.8822 4.07032C16.8 4.07032 20.7857 7.75618 20.7857 12.6107C20.7911 16.4923 18.3911 19.8185 14.8554 20.9819ZM9.60005 17.7509C9.49827 17.772 9.40184 17.7297 9.39112 17.661C9.38041 17.5816 9.45005 17.5129 9.55184 17.4917C9.65362 17.4812 9.75005 17.5235 9.76077 17.5922C9.77684 17.661 9.70719 17.7297 9.60005 17.7509ZM9.09113 17.7033C9.09113 17.772 9.01077 17.8302 8.90363 17.8302C8.78577 17.8408 8.70541 17.7826 8.70541 17.7033C8.70541 17.6345 8.78577 17.5763 8.89291 17.5763C8.9947 17.5658 9.09113 17.6239 9.09113 17.7033ZM8.3572 17.6451C8.33577 17.7138 8.22863 17.7456 8.13756 17.7138C8.03577 17.6927 7.96613 17.6134 7.98756 17.5446C8.00899 17.4759 8.11613 17.4441 8.2072 17.4653C8.31434 17.497 8.38399 17.5763 8.3572 17.6451ZM7.69827 17.3595C7.65006 17.4177 7.54827 17.4071 7.46792 17.3278C7.38756 17.2591 7.36613 17.1586 7.4197 17.111C7.46792 17.0528 7.5697 17.0634 7.65006 17.1427C7.7197 17.2115 7.74649 17.3172 7.69827 17.3595ZM7.21078 16.8783C7.16256 16.91 7.07149 16.8783 7.01256 16.799C6.95363 16.7197 6.95363 16.6298 7.01256 16.5927C7.07149 16.5452 7.16256 16.5822 7.21078 16.6615C7.2697 16.7408 7.2697 16.836 7.21078 16.8783ZM6.86256 16.3654C6.81435 16.4129 6.73399 16.3865 6.67506 16.3336C6.61613 16.2649 6.60542 16.1856 6.65363 16.1485C6.70185 16.1009 6.78221 16.1274 6.84113 16.1803C6.90006 16.249 6.91078 16.3283 6.86256 16.3654ZM6.50363 15.974C6.48221 16.0216 6.41256 16.0322 6.35364 15.9952C6.28399 15.9635 6.25185 15.9053 6.27328 15.8577C6.29471 15.826 6.35364 15.8101 6.42328 15.8365C6.49292 15.8736 6.52506 15.9317 6.50363 15.974Z" fill="black"/>
</g>
<defs>
<clipPath id="clip0_102_12">
<rect width="24" height="24" fill="white" transform="translate(0 0.691162)"/>
</clipPath>
</defs>
</svg>
