<svg width="64" height="64" viewBox="0 0 64 64" fill="none" xmlns="http://www.w3.org/2000/svg">
<rect width="64" height="64" fill="#E3E5E8"/>
<path d="M16 16H48V48H16V16Z" fill="#F7DF1E"/>
<path d="M24.4142 42.7414L26.8629 41.2594C27.3354 42.097 27.7652 42.8058 28.7961 42.8058C29.7842 42.8058 30.4073 42.4193 30.4073 40.9158V30.691H33.4144V40.9583C33.4144 44.0729 31.5887 45.4907 28.9249 45.4907C26.5193 45.4907 25.1229 44.2448 24.4141 42.7412L24.4142 42.7414ZM35.0478 42.4192L37.4963 41.0015C38.1409 42.0542 38.9787 42.8274 40.4607 42.8274C41.7068 42.8274 42.5013 42.2044 42.5013 41.3452C42.5013 40.3142 41.6851 39.9489 40.3103 39.3477L39.5587 39.0252C37.3891 38.1018 35.9499 36.9418 35.9499 34.493C35.9499 32.2375 37.6683 30.519 40.3534 30.519C42.2652 30.519 43.6399 31.185 44.6279 32.9249L42.2864 34.4287C41.7708 33.505 41.2126 33.1399 40.3533 33.1399C39.4726 33.1399 38.9141 33.6984 38.9141 34.4287C38.9141 35.3308 39.4726 35.6962 40.7613 36.2547L41.5131 36.5768C44.0693 37.6724 45.5084 38.7893 45.5084 41.3023C45.5084 44.009 43.3819 45.491 40.5251 45.491C37.7327 45.491 35.9283 44.1593 35.0477 42.4193" fill="black"/>
</svg>
