<svg width="64" height="64" viewBox="0 0 64 64" fill="none" xmlns="http://www.w3.org/2000/svg">
<rect width="64" height="64" fill="#E3E5E8"/>
<g clip-path="url(#clip0_72_124)">
<path fill-rule="evenodd" clip-rule="evenodd" d="M52.6916 30.7119C52.6484 30.7214 52.6051 30.8257 52.6051 30.8825C52.5965 31.2618 52.5879 32.2668 52.5879 32.9494C52.5879 32.9684 52.6138 33.0063 52.6397 33.0063C52.7695 33.0158 53.0809 33.0252 53.3491 33.0252C53.7211 33.0252 53.9374 32.9684 54.0586 32.9116C54.37 32.7408 54.5171 32.3711 54.5171 31.9633C54.5171 31.0438 53.9288 30.6929 53.0549 30.6929C52.9944 30.6835 52.8215 30.6835 52.6916 30.7119V30.7119ZM54.9237 34.9499C54.9237 34.0113 54.2921 33.4898 53.1502 33.4898C53.0982 33.4898 52.7349 33.4804 52.6483 33.4993C52.6224 33.5088 52.5879 33.5278 52.5879 33.5563C52.5879 34.2293 52.5792 35.3008 52.6051 35.7179C52.6224 35.898 52.7436 36.1541 52.8907 36.2299C53.0463 36.3247 53.4011 36.3436 53.6433 36.3436C54.3267 36.3436 54.9237 35.9265 54.9237 34.9499V34.9499ZM50.9268 30.1905C51.0133 30.1905 51.2728 30.2189 51.9389 30.2189C52.5705 30.2189 53.0723 30.2 53.6865 30.2C54.4391 30.2 55.4773 30.4938 55.4773 31.7264C55.4773 32.3332 55.088 32.8168 54.5776 33.0538C54.5517 33.0632 54.5517 33.0821 54.5776 33.0916C55.3043 33.2908 55.9446 33.7838 55.9446 34.7128C55.9446 35.6231 55.4255 36.2014 54.6728 36.5617C54.2142 36.7797 53.6433 36.8556 53.0637 36.8556C52.6224 36.8556 51.4372 36.7988 50.7797 36.8178C50.7105 36.7892 50.8403 36.4479 50.9008 36.3911C51.0566 36.3815 51.1776 36.3721 51.342 36.3152C51.5757 36.2489 51.6015 36.173 51.6361 35.7843C51.6535 35.4524 51.6535 34.2767 51.6535 33.4425C51.6535 32.2953 51.6622 31.5178 51.6535 31.1386C51.6449 30.8448 51.5497 30.7498 51.3594 30.6929C51.2122 30.6646 50.97 30.6266 50.771 30.5982C50.7277 30.5507 50.8748 30.2283 50.9268 30.1905ZM45.9349 36.0877C46.1426 36.2677 46.5492 36.3435 46.9126 36.3435C47.3797 36.3435 47.8469 36.2489 48.2968 35.8031C48.7553 35.3482 49.0754 34.6466 49.0754 33.5278C49.0754 32.4564 48.7034 31.5841 47.942 31.0722C47.5095 30.7782 46.9558 30.6551 46.3156 30.6551C46.1253 30.6551 45.9436 30.6646 45.8312 30.7214C45.8051 30.7404 45.7446 30.8257 45.7446 30.873C45.7273 31.0627 45.7273 32.5227 45.7273 33.3761C45.7273 34.2578 45.7273 35.4904 45.7446 35.6326C45.7446 35.7748 45.8051 35.9929 45.935 36.0877H45.9349ZM43.971 30.1904C44.1354 30.1904 44.7669 30.2189 45.0697 30.2189C45.6149 30.2189 46.0041 30.1905 47.0336 30.1905C47.8987 30.1905 48.6255 30.4465 49.1446 30.93C49.7761 31.5273 50.1049 32.3522 50.1049 33.3571C50.1049 34.7888 49.5079 35.6136 48.9109 36.0877C48.3141 36.5712 47.5354 36.8556 46.4281 36.8556C45.8398 36.8556 44.8276 36.8367 43.9883 36.8271H43.9797C43.9365 36.7418 44.0489 36.41 44.1181 36.4005C44.3431 36.3721 44.4037 36.3625 44.5162 36.3153C44.6977 36.2393 44.7324 36.1351 44.7584 35.7843C44.7843 35.1301 44.7757 34.3432 44.7757 33.4519C44.7757 32.8168 44.7843 31.5746 44.7669 31.1764C44.7411 30.8447 44.6113 30.7593 44.3517 30.7024C44.222 30.674 44.0489 30.636 43.8068 30.6077C43.7721 30.5412 43.9278 30.2473 43.971 30.1905V30.1904Z" fill="#8E714E"/>
<path fill-rule="evenodd" clip-rule="evenodd" d="M33.503 36.4572C33.2867 36.4287 33.131 36.3909 32.9407 36.2961C32.9147 36.2771 32.8714 36.1823 32.8714 36.1443C32.8542 35.8125 32.8542 34.8644 32.8542 34.2292C32.8542 33.7172 32.7764 33.2716 32.5773 32.9588C32.3437 32.5984 32.0064 32.3899 31.5737 32.3899C31.1931 32.3899 30.6826 32.6743 30.2587 33.0725C30.2501 33.0819 30.1809 33.1484 30.1895 33.044C30.1895 32.9398 30.2069 32.7312 30.2155 32.5889C30.2242 32.4562 30.1549 32.3899 30.1549 32.3899C29.8781 32.5415 29.0995 32.7406 28.8139 32.769C28.6064 32.8166 28.5544 33.0346 28.7708 33.1104H28.7794C29.0129 33.1862 29.1687 33.2716 29.2897 33.357C29.3763 33.4328 29.3676 33.5371 29.3676 33.6225C29.3763 34.3334 29.3763 35.4238 29.3504 36.0211C29.3418 36.2581 29.2812 36.3434 29.1254 36.3813L29.1427 36.3719C29.0216 36.4003 28.9264 36.4287 28.7794 36.4477C28.7274 36.5046 28.7274 36.808 28.7794 36.8744C28.8745 36.8744 29.3763 36.8459 29.7917 36.8459C30.3626 36.8459 30.6568 36.8744 30.8038 36.8744C30.8643 36.7986 30.8817 36.5141 30.8471 36.4477C30.6826 36.4382 30.5615 36.4193 30.4491 36.3813C30.2934 36.3433 30.2501 36.2581 30.2414 36.059C30.2242 35.5564 30.2242 34.4946 30.2242 33.7741C30.2242 33.575 30.2761 33.4802 30.3279 33.4232C30.5269 33.2337 30.8471 33.101 31.1326 33.101C31.4094 33.101 31.591 33.1958 31.7295 33.3191C31.9198 33.4896 31.9803 33.7362 32.0063 33.9163C32.0495 34.324 32.0323 35.1299 32.0323 35.8315C32.0323 36.2107 32.0063 36.3055 31.8766 36.3529C31.816 36.3813 31.6603 36.4193 31.4786 36.4381C31.418 36.5046 31.4354 36.7986 31.4786 36.8649C31.7295 36.8649 32.0236 36.8365 32.4562 36.8365C32.9925 36.8365 33.3387 36.8649 33.4771 36.8649C33.5203 36.808 33.5376 36.5331 33.503 36.4572ZM35.8994 32.8356C35.441 32.8356 35.1554 33.2242 35.1554 33.8309C35.1554 34.4473 35.4063 35.1583 36.1157 35.1583C36.2368 35.1583 36.4618 35.1014 36.5655 34.9687C36.7299 34.7981 36.8424 34.4567 36.8424 34.0964C36.8424 33.3095 36.4877 32.8356 35.8994 32.8356ZM35.8389 37.026C35.6659 37.026 35.5447 37.0829 35.4669 37.1304C35.1035 37.3862 34.9391 37.6328 34.9391 37.9268C34.9391 38.2017 35.0343 38.4197 35.242 38.6093C35.4928 38.8464 35.8389 38.9602 36.28 38.9602C37.1625 38.9602 37.5518 38.4387 37.5518 37.9268C37.5518 37.5664 37.3874 37.3294 37.0501 37.1968C36.8079 37.0829 36.3667 37.026 35.8389 37.026ZM35.8994 39.4912C35.3717 39.4912 34.991 39.3679 34.6623 39.0929C34.3422 38.8275 34.2038 38.4292 34.2038 38.1543C34.2038 38.0785 34.2211 37.8698 34.3768 37.6803C34.4719 37.5664 34.6797 37.3484 35.1728 36.9787C35.19 36.9692 35.1986 36.9598 35.1986 36.9406C35.1986 36.9217 35.1813 36.9027 35.1641 36.8934C34.7575 36.7227 34.6363 36.4477 34.6017 36.2961V36.2771C34.5931 36.2201 34.5758 36.1633 34.6537 36.1064C34.7142 36.059 34.8008 36.0021 34.8958 35.9359C35.0429 35.8409 35.1986 35.7366 35.2938 35.6513C35.3111 35.6324 35.3111 35.6135 35.3111 35.5944C35.3111 35.5754 35.2938 35.5564 35.2765 35.5471C34.671 35.329 34.3682 34.8359 34.3682 34.0964C34.3682 33.6129 34.5672 33.1768 34.9218 32.9018C35.1641 32.6933 35.7697 32.4373 36.1676 32.4373H36.1936C36.6002 32.4467 36.8251 32.5415 37.1452 32.6648C37.3182 32.7312 37.4827 32.7596 37.7077 32.7596C38.045 32.7596 38.1921 32.6458 38.3131 32.5132C38.3218 32.5321 38.3392 32.5796 38.3478 32.7027C38.3564 32.826 38.3218 33.0061 38.2353 33.1389C38.1661 33.2431 38.0104 33.3191 37.8547 33.3191H37.8113C37.6556 33.3001 37.5863 33.2811 37.5863 33.2811L37.5518 33.3001C37.5432 33.3191 37.5518 33.338 37.5605 33.3664L37.5692 33.3854C37.5864 33.4707 37.621 33.7266 37.621 33.7931C37.621 34.5705 37.3356 34.9117 37.0328 35.1678C36.7386 35.4048 36.4013 35.5564 36.0205 35.5944C36.0119 35.5944 35.9774 35.5944 35.8994 35.6039C35.8562 35.6039 35.7956 35.6135 35.7869 35.6135H35.7783C35.7091 35.6324 35.5361 35.7272 35.5361 35.8883C35.5361 36.0305 35.614 36.2012 35.986 36.2297C36.0638 36.2391 36.1416 36.2391 36.2282 36.2487C36.7213 36.2865 37.3356 36.334 37.621 36.4382C38.019 36.5993 38.2699 36.9881 38.2699 37.4527C38.2699 38.1544 37.8114 38.8086 37.0501 39.2161C36.6781 39.3963 36.306 39.4912 35.8994 39.4912ZM40.8306 32.8829C40.649 32.8829 40.4846 32.9302 40.3635 33.025C40.0262 33.2526 39.8531 33.7077 39.8531 34.3713C39.8531 35.6135 40.424 36.4857 41.2373 36.4857C41.4796 36.4857 41.6699 36.4098 41.8342 36.2581C42.0851 36.0305 42.2149 35.5754 42.2149 34.9402C42.2149 33.7077 41.6524 32.8829 40.8306 32.8829ZM40.9864 36.9407C39.5157 36.9407 38.988 35.7556 38.988 34.6464C38.988 33.8689 39.2735 33.2716 39.8444 32.8449C40.2511 32.57 40.7356 32.4184 41.1681 32.4184C42.2928 32.4184 43.0801 33.3001 43.0801 34.5705C43.0801 35.4332 42.7686 36.1159 42.1716 36.5331C41.8862 36.7416 41.3931 36.9407 40.9864 36.9407ZM25.5697 32.8828C25.3881 32.8828 25.2237 32.9302 25.1025 33.025C24.7652 33.2526 24.5921 33.7077 24.5921 34.3713C24.5921 35.6135 25.1631 36.4857 25.9763 36.4857C26.2186 36.4857 26.4089 36.4098 26.5733 36.2581C26.8241 36.0305 26.954 35.5754 26.954 34.9402C26.954 33.7077 26.4003 32.8828 25.5697 32.8828ZM25.7255 36.9407C24.2547 36.9407 23.727 35.7556 23.727 34.6464C23.727 33.8689 24.0125 33.2716 24.5834 32.8449C24.9901 32.57 25.4746 32.4184 25.9072 32.4184C27.0319 32.4184 27.8191 33.3001 27.8191 34.5705C27.8191 35.4332 27.5076 36.1159 26.9106 36.5331C26.6338 36.7416 26.1407 36.9407 25.7255 36.9407ZM15.837 36.8459C15.8196 36.8176 15.8023 36.7322 15.811 36.6279C15.811 36.552 15.8284 36.5046 15.837 36.4857C16.0187 36.4572 16.1138 36.4287 16.2176 36.4003C16.3907 36.3529 16.4598 36.2487 16.4685 36.0117C16.4945 35.4428 16.4945 34.3619 16.4858 33.6129V33.5939C16.4858 33.5086 16.4858 33.4042 16.3907 33.3284C16.2522 33.2337 16.0878 33.1484 15.8716 33.0818C15.7938 33.0536 15.7418 33.0061 15.7504 32.9493C15.7504 32.8924 15.8024 32.826 15.9149 32.807C16.2003 32.7786 16.9442 32.5796 17.2384 32.4373C17.2558 32.4562 17.2817 32.5132 17.2817 32.589L17.2731 32.6932C17.2644 32.7976 17.2558 32.9209 17.2558 33.044C17.2558 33.0819 17.2905 33.1104 17.325 33.1104C17.3423 33.1104 17.3597 33.101 17.3769 33.0914C17.9306 32.6174 18.4323 32.4467 18.6918 32.4467C19.1159 32.4467 19.4446 32.6648 19.6955 33.1199C19.7128 33.1484 19.7301 33.1579 19.7561 33.1579C19.7733 33.1579 19.7992 33.1484 19.8079 33.1294C20.3184 32.7027 20.8288 32.4467 21.1662 32.4467C21.9707 32.4467 22.4466 33.101 22.4466 34.2102C22.4466 34.5231 22.4466 34.9307 22.438 35.3006C22.438 35.6324 22.4293 35.9357 22.4293 36.1539C22.4293 36.2011 22.4898 36.3529 22.585 36.3813C22.7061 36.4477 22.8705 36.4762 23.0868 36.5141H23.0954C23.1128 36.5804 23.0782 36.8269 23.0436 36.8744C22.9916 36.8744 22.9137 36.8744 22.8273 36.8649C22.6083 36.8524 22.389 36.8461 22.1697 36.8459C21.6334 36.8459 21.3566 36.8554 21.0883 36.8744C21.0711 36.7986 21.0624 36.571 21.0883 36.5141C21.2441 36.4857 21.3219 36.4572 21.4171 36.4288C21.5902 36.3719 21.6334 36.2865 21.6421 36.04C21.6421 35.8599 21.6766 34.324 21.6247 33.9542C21.5728 33.575 21.3132 33.1294 20.7422 33.1294C20.5259 33.1294 20.1886 33.2242 19.8599 33.4991C19.8426 33.5181 19.8252 33.5654 19.8252 33.5939V33.6035C19.8599 33.8025 19.8599 34.0301 19.8599 34.3809V34.9971C19.8599 35.4238 19.8511 35.822 19.8599 36.1253C19.8599 36.334 19.9724 36.3813 20.0675 36.4193C20.1194 36.4287 20.1539 36.4382 20.1973 36.4477C20.2751 36.4667 20.353 36.4857 20.4741 36.5141C20.4914 36.5521 20.4914 36.6753 20.4655 36.7796C20.4568 36.8365 20.4394 36.8648 20.4308 36.8744C20.1367 36.8649 19.8339 36.8554 19.3927 36.8554C19.263 36.8554 19.038 36.8649 18.8476 36.8649C18.6918 36.8649 18.5448 36.8744 18.4584 36.8744C18.4497 36.8554 18.4323 36.7891 18.4323 36.6847C18.4323 36.5994 18.4497 36.5331 18.467 36.5141C18.5102 36.5046 18.5448 36.4952 18.5881 36.4952C18.6918 36.4762 18.7785 36.4572 18.8649 36.4382C19.0121 36.3909 19.0639 36.3055 19.0725 36.0969C19.0985 35.6229 19.1245 34.2672 19.0639 33.9257C18.9601 33.3759 18.6747 33.101 18.2161 33.101C17.9479 33.101 17.6104 33.2431 17.3337 33.4708C17.2904 33.5086 17.2558 33.6034 17.2558 33.6887V34.2481C17.2558 34.9307 17.2558 35.7841 17.2644 36.1539C17.2731 36.2675 17.3076 36.4003 17.5067 36.4477C17.55 36.4572 17.6192 36.4762 17.7057 36.4857L17.8613 36.5141C17.8787 36.571 17.87 36.7986 17.8354 36.8744C17.7489 36.8744 17.6451 36.8649 17.5239 36.8649C17.2992 36.8527 17.0742 36.8463 16.8492 36.8459C16.5464 36.8459 16.3301 36.8554 16.157 36.8649C16.0359 36.8459 15.9408 36.8459 15.837 36.8459Z" fill="#442D22"/>
<path fill-rule="evenodd" clip-rule="evenodd" d="M11.2862 39.1216L10.9315 38.9887C10.9315 38.9887 10.9748 37.0073 10.3259 36.8651C9.89345 36.3151 10.3953 13.5418 11.9525 36.7892C11.9525 36.7892 11.416 37.083 11.3209 37.5856C11.217 38.0786 11.2862 39.1216 11.2862 39.1216V39.1216Z" fill="white"/>
<path fill-rule="evenodd" clip-rule="evenodd" d="M11.2862 39.1216L10.9315 38.9887C10.9315 38.9887 10.9748 37.0073 10.3259 36.8651C9.89345 36.3151 10.3953 13.5418 11.9525 36.7892C11.9525 36.7892 11.416 37.083 11.3209 37.5856C11.217 38.0786 11.2862 39.1216 11.2862 39.1216V39.1216Z" fill="#A6A385"/>
<path fill-rule="evenodd" clip-rule="evenodd" d="M11.4767 37.2064C11.4767 37.2064 14.5826 34.9688 13.8558 30.3136C13.1551 26.929 11.5027 25.8198 11.321 25.3931C11.122 25.0897 10.9316 24.5588 10.9316 24.5588L11.0615 33.9733C11.0615 33.9828 10.7933 36.8556 11.4768 37.2065" fill="white"/>
<path fill-rule="evenodd" clip-rule="evenodd" d="M11.4767 37.2064C11.4767 37.2064 14.5826 34.9688 13.8558 30.3136C13.1551 26.929 11.5027 25.8198 11.321 25.3931C11.122 25.0897 10.9316 24.5588 10.9316 24.5588L11.0615 33.9733C11.0615 33.9828 10.7933 36.8556 11.4768 37.2065" fill="#499D4A"/>
<path fill-rule="evenodd" clip-rule="evenodd" d="M10.75 37.3295C10.75 37.3295 7.83435 35.1489 8.00741 31.3092C8.17175 27.4694 10.2308 25.5827 10.6287 25.2414C10.8883 24.938 10.897 24.8241 10.9143 24.5208C11.096 24.9474 11.0614 30.9015 11.0873 31.603C11.1651 34.3051 10.9489 36.8177 10.75 37.3295Z" fill="white"/>
<path fill-rule="evenodd" clip-rule="evenodd" d="M10.75 37.3295C10.75 37.3295 7.83435 35.1489 8.00741 31.3092C8.17175 27.4694 10.2308 25.5827 10.6287 25.2414C10.8883 24.938 10.897 24.8241 10.9143 24.5208C11.096 24.9474 11.0614 30.9015 11.0873 31.603C11.1651 34.3051 10.9489 36.8177 10.75 37.3295Z" fill="#58AA50"/>
</g>
<defs>
<clipPath id="clip0_72_124">
<rect width="48" height="15" fill="white" transform="translate(8 24.5)"/>
</clipPath>
</defs>
</svg>
