<svg width="64" height="64" viewBox="0 0 64 64" fill="none" xmlns="http://www.w3.org/2000/svg">
<rect width="64" height="64" fill="#E3E5E8"/>
<path d="M42.1099 33.572C41.2306 33.5732 40.3631 33.7743 39.5729 34.16C39.3255 33.7495 39.1345 33.3075 39.0049 32.846C38.9305 32.4843 38.9133 32.1131 38.9539 31.746C39.0394 31.3421 39.1503 30.944 39.2859 30.554C39.2809 30.503 39.2249 30.262 38.6619 30.254C38.0989 30.246 37.6139 30.361 37.5619 30.51C37.4641 30.7822 37.3856 31.0609 37.3269 31.344C36.861 32.4936 36.2874 33.5965 35.6139 34.638C35.2366 34.0194 35.0814 33.2907 35.1739 32.572C35.2594 32.1681 35.3703 31.77 35.5059 31.38C35.5009 31.329 35.4449 31.088 34.8819 31.08C34.3189 31.072 33.8339 31.187 33.7819 31.336C33.7299 31.485 33.6639 31.836 33.5469 32.17C33.4299 32.504 32.0639 35.556 31.7059 36.343C31.5219 36.743 31.3629 37.069 31.2509 37.289C31.2456 37.3033 31.2389 37.3171 31.2309 37.33L31.0779 37.622V37.627C31.0009 37.765 30.9189 37.893 30.8779 37.893C30.8064 37.6073 30.8098 37.308 30.8879 37.024C31.0879 35.965 31.5779 34.319 31.5729 34.262C31.5729 34.231 31.6649 33.945 31.2559 33.797C31.161 33.7519 31.0545 33.7373 30.951 33.7552C30.8475 33.7731 30.7521 33.8227 30.6779 33.897C30.6419 33.897 30.6169 33.984 30.6169 33.984C30.6169 33.984 31.0619 32.133 29.7679 32.133C29.264 32.2344 28.7854 32.4355 28.3604 32.7245C27.9354 33.0136 27.5724 33.3847 27.2929 33.816C26.9449 34.005 26.2039 34.409 25.4109 34.844C25.1109 35.013 24.7969 35.182 24.5059 35.344C24.4859 35.324 24.4649 35.298 24.4449 35.278C22.8699 33.6 19.9749 32.416 20.0999 30.171C20.1459 29.353 20.4269 27.205 25.6589 24.596C29.9649 22.474 33.3919 23.062 33.9849 24.366C34.8339 26.228 32.1489 29.685 27.6999 30.186C27.2077 30.2859 26.6994 30.2738 26.2125 30.1508C25.7256 30.0277 25.2725 29.7968 24.8869 29.475C24.6519 29.219 24.6159 29.204 24.5289 29.255C24.3859 29.332 24.4779 29.562 24.5289 29.695C24.6986 30.0022 24.9282 30.2722 25.204 30.4891C25.4799 30.7061 25.7964 30.8655 26.1349 30.958C27.8851 31.3363 29.7099 31.1554 31.3519 30.441C34.0519 29.398 36.1519 26.498 35.5359 24.069C34.9169 21.604 30.8259 20.791 26.9539 22.169C24.5287 22.9851 22.2877 24.2705 20.3589 25.952C18.2259 27.947 17.8889 29.68 18.0269 30.407C18.5269 32.985 22.0779 34.662 23.4989 35.907C23.4347 35.9435 23.37 35.9792 23.3049 36.014C22.5939 36.367 19.8839 37.784 19.2049 39.282C18.4379 40.982 19.3279 42.197 19.9159 42.361C20.8019 42.5731 21.732 42.5033 22.5764 42.1612C23.4208 41.8192 24.1373 41.222 24.6259 40.453C25.042 39.8153 25.2977 39.0864 25.3714 38.3284C25.445 37.5705 25.3344 36.806 25.0489 36.1C25.0441 36.0886 25.0373 36.0781 25.0289 36.069L25.5859 35.742C25.9244 35.542 26.2671 35.3493 26.6139 35.164C26.4057 35.7645 26.2835 36.3914 26.2509 37.026C26.1802 37.9988 26.4779 38.9626 27.0849 39.726C27.1773 39.8055 27.2845 39.8659 27.4004 39.9037C27.5162 39.9415 27.6384 39.9559 27.7599 39.946C28.3599 39.946 28.6349 39.446 28.9359 38.852C29.3039 38.126 29.6359 37.282 29.6359 37.282C29.6359 37.282 29.2219 39.563 30.3469 39.563C30.7559 39.563 31.1699 39.031 31.3549 38.763V38.768L31.3859 38.717L31.4519 38.61V38.6C31.6159 38.314 31.9839 37.664 32.5309 36.585C33.2369 35.194 33.9169 33.455 33.9169 33.455C33.9825 33.8372 34.073 34.2147 34.1879 34.585C34.3526 35.034 34.5474 35.4713 34.7709 35.894C34.6069 36.124 34.5049 36.252 34.5049 36.252L34.5099 36.257C34.3769 36.431 34.2339 36.62 34.0749 36.804C33.6018 37.3241 33.1629 37.8743 32.7609 38.451C32.7012 38.5479 32.6806 38.6639 32.7035 38.7754C32.7264 38.8869 32.7909 38.9855 32.8839 39.051C33.0944 39.1606 33.3344 39.2002 33.5689 39.164C33.9224 39.1441 34.2699 39.0646 34.5969 38.929C34.9129 38.8178 35.211 38.6612 35.4819 38.464C35.7611 38.2706 35.9859 38.0086 36.1346 37.7031C36.2833 37.3977 36.3509 37.0592 36.3309 36.72C36.2995 36.2929 36.1903 35.875 36.0089 35.487C36.0599 35.415 36.1089 35.344 36.1569 35.272C36.7254 34.4234 37.2379 33.5385 37.6909 32.623C37.7565 33.0052 37.847 33.3827 37.9619 33.753C38.0978 34.141 38.265 34.5172 38.4619 34.878C37.8079 35.3813 37.2927 36.0427 36.9649 36.8C36.6429 37.731 36.8929 38.15 37.3649 38.247C37.6232 38.2648 37.8814 38.212 38.1119 38.094C38.4508 37.9827 38.77 37.8187 39.0579 37.608C39.3615 37.4289 39.6157 37.1771 39.7978 36.8753C39.9798 36.5735 40.084 36.2311 40.1009 35.879C40.0782 35.5276 39.9988 35.1822 39.8659 34.856C40.729 34.5189 41.6648 34.4113 42.5819 34.544C45.0159 34.83 45.4969 36.349 45.4049 36.989C45.3618 37.2159 45.2705 37.4309 45.1374 37.6196C45.0042 37.8083 44.8322 37.9664 44.6329 38.083C44.4639 38.19 44.4079 38.226 44.4229 38.303C44.4429 38.416 44.5229 38.41 44.6679 38.39C45.0347 38.276 45.3584 38.0535 45.5962 37.7518C45.834 37.4501 45.9748 37.0834 45.9999 36.7C46.0769 35.2 44.6449 33.555 42.1129 33.57L42.1099 33.572ZM23.3299 39.9C22.5219 40.78 21.3969 41.112 20.9109 40.831C20.3889 40.531 20.5939 39.231 21.5859 38.299C22.1744 37.7693 22.8104 37.295 23.4859 36.882C23.6039 36.81 23.7779 36.708 23.9859 36.582L24.0419 36.551L24.1649 36.474C24.3421 37.0678 24.3582 37.6981 24.2115 38.3001C24.0647 38.9022 23.7605 39.4544 23.3299 39.9V39.9ZM29.2109 35.9C28.9299 36.585 28.3419 38.34 27.9839 38.242C27.6769 38.16 27.4839 36.83 27.9229 35.516C28.1446 34.8835 28.4674 34.2911 28.8789 33.762C29.3189 33.271 29.8049 33.107 29.9219 33.307C29.8152 34.2019 29.5755 35.0759 29.2109 35.9V35.9ZM34.0639 38.222C33.9459 38.283 33.8339 38.322 33.7829 38.294C33.7469 38.274 33.8339 38.194 33.8339 38.194C33.8339 38.194 34.4429 37.539 34.6829 37.243C34.8209 37.069 34.9829 36.865 35.1589 36.634V36.7C35.1589 37.482 34.4019 38.009 34.0649 38.224L34.0639 38.222ZM37.8079 37.368C37.7209 37.307 37.7359 37.102 38.0279 36.463C38.2309 36.0527 38.5146 35.6874 38.8619 35.389C38.9151 35.5404 38.9429 35.6996 38.9439 35.86C38.9478 36.2016 38.8386 36.5348 38.6333 36.8078C38.428 37.0808 38.1381 37.2781 37.8089 37.369L37.8079 37.368Z" fill="#CD6799"/>
</svg>
