<svg width="64" height="64" viewBox="0 0 64 64" fill="none" xmlns="http://www.w3.org/2000/svg">
<rect width="64" height="64" fill="#E3E5E8"/>
<g clip-path="url(#clip0_72_172)">
<path d="M8.31237 35.8543V30.5143H14.9821V30.2019H8.31237V25.3303H15.4038V25.0181H8V36.1666H15.4662V35.8543H8.31247H8.31237ZM21.48 28.1409L18.7153 31.779L16.013 28.141H15.6069L18.5278 32.0133L15.3256 36.1665H15.7005L18.7151 32.2473L21.7454 36.1665H22.1359L18.9182 32.0131L21.8547 28.1408H21.4799L21.48 28.1409ZM23.0732 38.9147V33.9182H23.1044C23.2919 34.6469 23.6616 35.2324 24.2135 35.6749C24.7654 36.1172 25.4682 36.3385 26.3221 36.3385C26.874 36.3385 27.3635 36.2266 27.7904 36.0028C28.2173 35.779 28.5739 35.4745 28.8604 35.0893C29.1467 34.7041 29.3654 34.2566 29.5164 33.7465C29.6674 33.2365 29.7429 32.7003 29.7429 32.1383C29.7429 31.5345 29.6647 30.9775 29.5085 30.4675C29.3524 29.9574 29.1259 29.515 28.8291 29.1403C28.5323 28.7656 28.1731 28.474 27.7513 28.266C27.3296 28.0577 26.8532 27.9536 26.3221 27.9536C25.916 27.9536 25.5385 28.0135 25.1897 28.1332C24.8408 28.2529 24.5311 28.422 24.2603 28.6406C23.988 28.861 23.751 29.1216 23.5574 29.4135C23.3596 29.7102 23.2086 30.0355 23.1044 30.3895H23.0732V28.1409H22.7608V38.9147H23.0732V38.9147ZM26.3221 36.0417C25.3433 36.0417 24.5571 35.706 23.9635 35.0346C23.37 34.3632 23.0732 33.3977 23.0732 32.1381C23.0732 31.6176 23.1461 31.1232 23.2919 30.6548C23.4377 30.1864 23.6485 29.7752 23.9244 29.4213C24.2004 29.0673 24.5415 28.7863 24.9475 28.5781C25.3536 28.3699 25.8119 28.2658 26.3221 28.2658C26.8428 28.2658 27.2984 28.3699 27.6889 28.5781C28.0793 28.7863 28.4022 29.07 28.6573 29.4291C28.9124 29.7882 29.105 30.1994 29.2353 30.6626C29.3654 31.1258 29.4304 31.6176 29.4304 32.1381C29.4304 32.6066 29.3706 33.0725 29.2508 33.5356C29.1311 33.9988 28.9462 34.4152 28.6963 34.7848C28.4464 35.1543 28.1263 35.4561 27.7357 35.6904C27.3452 35.9246 26.874 36.0417 26.3221 36.0417V36.0417ZM31.4611 36.1666V31.6229C31.4611 31.1857 31.5235 30.7588 31.6486 30.3425C31.7734 29.9261 31.9661 29.5592 32.2264 29.2417C32.4868 28.9242 32.8173 28.6744 33.2183 28.4922C33.6192 28.31 34.0956 28.2346 34.6475 28.2658V27.9535C34.1685 27.9432 33.7494 27.9951 33.3902 28.1097C33.0308 28.2242 32.7211 28.3803 32.4607 28.5781C32.2004 28.7759 31.9922 29.0074 31.836 29.2729C31.6799 29.538 31.5641 29.8248 31.4923 30.1239H31.4611V28.1409H31.1487V36.1667H31.4611V36.1666ZM35.038 32.2162H41.7545C41.7754 31.6645 41.7208 31.1337 41.5905 30.6236C41.4604 30.1135 41.2521 29.6606 40.9658 29.2652C40.6794 28.8696 40.3097 28.5521 39.8567 28.3126C39.4037 28.0732 38.8649 27.9535 38.2401 27.9535C37.7923 27.9535 37.3549 28.0472 36.928 28.2347C36.5011 28.422 36.1262 28.6952 35.8034 29.0543C35.4806 29.4134 35.2202 29.8532 35.0224 30.3738C34.8246 30.8942 34.7256 31.4875 34.7256 32.1538C34.7256 32.7471 34.7933 33.3014 34.9287 33.8167C35.0641 34.3319 35.2723 34.7796 35.5534 35.1595C35.8347 35.5394 36.1966 35.8335 36.6391 36.0417C37.0816 36.2499 37.6153 36.3488 38.2401 36.3384C39.1564 36.3384 39.927 36.0806 40.5518 35.5655C41.1766 35.0501 41.5463 34.3241 41.6609 33.3873H41.3485C41.2131 34.2721 40.8668 34.9357 40.3097 35.3781C39.7526 35.8205 39.0524 36.0417 38.2088 36.0417C37.6361 36.0417 37.1519 35.9428 36.7561 35.745C36.3605 35.5473 36.0377 35.2766 35.7877 34.9331C35.5379 34.5895 35.353 34.1862 35.2333 33.7229C35.1135 33.2598 35.0484 32.7575 35.038 32.2162ZM41.4421 31.9039H35.0381C35.0692 31.3418 35.1734 30.837 35.3504 30.3894C35.5275 29.9417 35.7591 29.5592 36.0455 29.2417C36.3318 28.9242 36.6651 28.6823 37.0452 28.5156C37.4252 28.3491 37.834 28.2658 38.2713 28.2658C38.792 28.2658 39.2501 28.3621 39.6459 28.5547C40.0415 28.7473 40.3722 29.0102 40.6378 29.3432C40.9033 29.6763 41.1037 30.0641 41.2391 30.5064C41.3744 30.9489 41.4421 31.4147 41.4421 31.9039ZM48.2368 30.5143H48.5492C48.5492 29.619 48.2889 28.9685 47.7683 28.5625C47.2475 28.1565 46.5394 27.9535 45.6439 27.9535C45.144 27.9535 44.7223 28.016 44.3787 28.141C44.0351 28.2658 43.7539 28.4272 43.5352 28.6249C43.3166 28.8226 43.1604 29.0413 43.0666 29.2807C42.9729 29.5202 42.926 29.7492 42.926 29.9678C42.926 30.4049 43.0041 30.7537 43.1604 31.0139C43.3166 31.2742 43.5613 31.4771 43.8944 31.6229C44.1236 31.7269 44.3838 31.8206 44.6755 31.904C44.967 31.9872 45.3055 32.0757 45.6908 32.1693C46.0344 32.2527 46.3728 32.3359 46.7061 32.4192C47.0393 32.5025 47.3335 32.6144 47.5886 32.7549C47.8437 32.8954 48.052 33.075 48.2134 33.2936C48.3747 33.5122 48.4555 33.7985 48.4555 34.1523C48.4555 34.4959 48.3748 34.7874 48.2134 35.0267C48.0533 35.2649 47.8427 35.4649 47.5964 35.6123C47.3465 35.7632 47.0679 35.8725 46.7607 35.9402C46.4535 36.0078 46.1542 36.0417 45.8626 36.0417C44.915 36.0417 44.1886 35.8309 43.6836 35.4094C43.1786 34.9877 42.9261 34.3241 42.9261 33.4185H42.6136C42.6136 34.4282 42.887 35.1673 43.4337 35.6358C43.9804 36.1042 44.79 36.3384 45.8626 36.3384C46.2062 36.3384 46.5524 36.2993 46.9014 36.2212C47.2501 36.1431 47.5626 36.0157 47.8385 35.8387C48.1121 35.6641 48.3418 35.4291 48.5101 35.1517C48.682 34.8706 48.7679 34.5271 48.7679 34.1211C48.7679 33.736 48.6924 33.4237 48.5414 33.1843C48.3904 32.9449 48.1926 32.7471 47.9478 32.5909C47.7031 32.4348 47.4272 32.3125 47.12 32.2241C46.8111 32.1351 46.5012 32.0492 46.1906 31.9663C45.8082 31.8661 45.4256 31.7672 45.0425 31.6697C44.7146 31.5864 44.41 31.4875 44.1288 31.373C43.8581 31.2585 43.642 31.0946 43.4805 30.8812C43.3191 30.6678 43.2385 30.3633 43.2385 29.9678C43.2385 29.8949 43.2593 29.7648 43.3009 29.5774C43.3425 29.39 43.4415 29.2 43.5977 29.0074C43.7539 28.815 43.9933 28.6432 44.3162 28.4922C44.639 28.3413 45.0816 28.2658 45.6439 28.2658C46.0292 28.2658 46.3806 28.3075 46.6982 28.3907C47.0158 28.474 47.2892 28.6067 47.5182 28.7889C47.7474 28.9711 47.9244 29.2027 48.0493 29.4837C48.1743 29.7649 48.2368 30.1083 48.2368 30.5143V30.5143ZM55.4688 30.5143H55.7812C55.7812 29.619 55.5209 28.9685 55.0002 28.5625C54.4795 28.1565 53.7714 27.9535 52.8759 27.9535C52.3761 27.9535 51.9543 28.016 51.6107 28.141C51.267 28.2658 50.9859 28.4272 50.7672 28.6249C50.5485 28.8226 50.3923 29.0413 50.2986 29.2807C50.2048 29.5202 50.1581 29.7492 50.1581 29.9678C50.1581 30.4049 50.2361 30.7537 50.3924 31.0139C50.5485 31.2742 50.7933 31.4771 51.1265 31.6229C51.3556 31.7269 51.6159 31.8206 51.9074 31.904C52.199 31.9872 52.5374 32.0757 52.9227 32.1693C53.2664 32.2527 53.6049 32.3359 53.938 32.4192C54.2713 32.5025 54.5654 32.6144 54.8206 32.7549C55.0757 32.8954 55.284 33.075 55.4454 33.2936C55.6068 33.5122 55.6875 33.7985 55.6875 34.1523C55.6875 34.4959 55.6068 34.7874 55.4454 35.0267C55.2853 35.2649 55.0747 35.4649 54.8285 35.6123C54.5784 35.7632 54.2999 35.8725 53.9927 35.9402C53.6856 36.0078 53.3861 36.0417 53.0946 36.0417C52.147 36.0417 51.4207 35.8309 50.9156 35.4094C50.4105 34.9877 50.1581 34.3241 50.1581 33.4185H49.8457C49.8457 34.4282 50.119 35.1673 50.6657 35.6358C51.2124 36.1042 52.022 36.3384 53.0946 36.3384C53.4383 36.3384 53.7845 36.2993 54.1333 36.2212C54.4821 36.1431 54.7945 36.0157 55.0705 35.8387C55.3441 35.6641 55.5739 35.4291 55.7422 35.1517C55.914 34.8706 55.9999 34.5271 55.9999 34.1211C55.9999 33.736 55.9244 33.4237 55.7734 33.1843C55.6224 32.9449 55.4246 32.7471 55.1799 32.5909C54.9352 32.4348 54.6592 32.3125 54.352 32.2241C54.0431 32.1351 53.7333 32.0492 53.4226 31.9663C53.0403 31.8661 52.6576 31.7672 52.2745 31.6697C51.9465 31.5864 51.6419 31.4875 51.3608 31.373C51.09 31.2585 50.8739 31.0946 50.7126 30.8812C50.5511 30.6678 50.4704 30.3633 50.4704 29.9678C50.4704 29.8949 50.4912 29.7648 50.533 29.5774C50.5746 29.39 50.6736 29.2 50.8297 29.0074C50.9859 28.815 51.2254 28.6432 51.5482 28.4922C51.871 28.3413 52.3135 28.2658 52.876 28.2658C53.2613 28.2658 53.6126 28.3075 53.9303 28.3907C54.2479 28.474 54.5212 28.6067 54.7503 28.7889C54.9794 28.9711 55.1564 29.2027 55.2814 29.4837C55.4064 29.7649 55.4689 30.1083 55.4689 30.5143H55.4688Z" fill="#222222"/>
</g>
<defs>
<clipPath id="clip0_72_172">
<rect width="48" height="13.9636" fill="white" transform="translate(8 25.0181)"/>
</clipPath>
</defs>
</svg>
