<svg width="64" height="64" viewBox="0 0 64 64" fill="none" xmlns="http://www.w3.org/2000/svg">
<rect width="64" height="64" fill="#E3E5E8"/>
<g clip-path="url(#clip0_72_56)">
<path d="M32.3596 47.9192L23.1025 45.3555L21.0396 22.2729H43.7075L41.6424 45.352L32.3596 47.9192V47.9192Z" fill="#264DE4"/>
<path d="M39.8744 43.8823L41.6391 24.1602H32.3735V45.9568L39.8744 43.8823V43.8823Z" fill="#2965F1"/>
<path d="M25.7689 32.7212L26.0232 35.5521H32.3736V32.7212H25.7689ZM25.2578 26.9912L25.5158 29.8222H32.3736V26.9912H25.2578V26.9912ZM32.3736 40.0735L32.3612 40.0768L29.2008 39.2255L28.9987 36.9677H26.15L26.5475 41.4128L32.3606 43.0225L32.3736 43.019V40.0735Z" fill="#EBEBEB"/>
<path d="M26.3745 16H29.8114V17.4339H27.8118V18.8678H29.8116V20.3016H26.3745V16ZM30.4989 16H33.9359V17.2468H31.9362V17.4962H33.9359V20.364H30.499V19.0546H32.4987V18.8053H30.4988V16H30.4989ZM34.6234 16H38.0604V17.2468H36.0607V17.4962H38.0604V20.364H34.6234V19.0546H36.6231V18.8053H34.6235V16H34.6234Z" fill="black"/>
<path d="M38.9602 32.7212L39.4725 26.9912H32.3639V29.8222H36.3625L36.1043 32.7212H32.3639V35.5521H35.8583L35.5288 39.2237L32.3638 40.0759V43.0212L38.1814 41.4128L38.2241 40.9344L38.891 33.4814L38.9602 32.7212V32.7212Z" fill="white"/>
</g>
<defs>
<clipPath id="clip0_72_56">
<rect width="22.747" height="32" fill="white" transform="translate(21 16)"/>
</clipPath>
</defs>
</svg>
