<svg width="64" height="64" viewBox="0 0 64 64" fill="none" xmlns="http://www.w3.org/2000/svg">
<rect width="64" height="64" fill="#E3E5E8"/>
<g clip-path="url(#clip0_72_104)">
<path d="M43.595 22.2729L41.5402 45.352L32.3035 47.9192L23.0923 45.3555L21.0396 22.2729H43.595Z" fill="#E44D26"/>
<path d="M32.3169 45.9568L39.7806 43.8823L41.5365 24.1602H32.3169V45.9568Z" fill="#F16529"/>
<path d="M28.3223 29.8222H32.3168V26.9912H25.2363L25.3039 27.7507L25.9979 35.5521H32.3168V32.7212H28.5803L28.3223 29.8222V29.8222ZM28.9587 36.9677H26.1241L26.5197 41.4128L32.3038 43.0225L32.3168 43.019V40.0735L32.3045 40.0768L29.1597 39.2255L28.9587 36.9677Z" fill="#EBEBEB"/>
<path d="M23.1377 16H24.5727V17.4214H25.8854V16H27.3204V20.3043H25.8854V18.863H24.5728V20.3043H23.1378V16H23.1377ZM29.2074 17.4274H27.9443V16H31.9065V17.4274H30.6426V20.3043H29.2076V17.4274H29.2075H29.2074ZM32.5353 16H34.0315L34.9519 17.5124L35.8714 16H37.3683V20.3043H35.9392V18.1709L34.9519 19.7013H34.9272L33.9393 18.1709V20.3043H32.5353V16ZM38.0824 16H39.5178V18.8816H41.5358V20.3043H38.0823V16H38.0824Z" fill="black"/>
<path d="M32.3072 35.5521H35.7843L35.4565 39.2237L32.3071 40.0759V43.0212L38.0959 41.4128L38.1383 40.9344L38.802 33.4814L38.8709 32.7212H32.3072V35.5521ZM32.3072 29.8153V29.8222H39.1278L39.1844 29.1859L39.3131 27.7507L39.3806 26.9912H32.3072V29.8154V29.8153Z" fill="white"/>
</g>
<defs>
<clipPath id="clip0_72_104">
<rect width="22.6341" height="32" fill="white" transform="translate(21 16)"/>
</clipPath>
</defs>
</svg>
