<svg width="64" height="64" viewBox="0 0 64 64" fill="none" xmlns="http://www.w3.org/2000/svg">
<rect width="64" height="64" fill="#E3E5E8"/>
<g clip-path="url(#clip0_77_217)">
<path d="M8.00342 27.9826L10.9388 25.053V38.6744L8.00351 35.7787V27.9826L8.00342 27.9826Z" fill="url(#paint0_linear_77_217)"/>
<path d="M19.3456 28.0103L16.37 25.0547L16.4302 38.6745L19.3657 35.7788L19.3456 28.0103Z" fill="url(#paint1_linear_77_217)"/>
<path d="M10.937 25.0554L18.5688 36.5672L16.4333 38.6782L8.79736 27.1919L10.937 25.0554Z" fill="url(#paint2_linear_77_217)"/>
<path d="M10.9396 30.3949L10.9354 30.8483L8.5791 27.4096L8.79724 27.1899L10.9396 30.3949Z" fill="black" fill-opacity="0.13"/>
<path d="M22.6802 34.8869V29.1371H22.9825C23.0832 29.1371 23.1413 29.1853 23.1569 29.2816L23.2093 30.1483C23.4729 29.8171 23.7799 29.5503 24.1308 29.348C24.4814 29.1458 24.872 29.0446 25.3022 29.0446C25.62 29.0446 25.9001 29.0948 26.1423 29.1949C26.3845 29.2951 26.5851 29.4395 26.744 29.6283C26.903 29.8171 27.023 30.0444 27.1045 30.3101C27.1859 30.5761 27.2266 30.8765 27.2266 31.2116V34.8869H26.6742V31.2116C26.6742 30.6722 26.5502 30.2495 26.3022 29.9433C26.054 29.6369 25.6744 29.4837 25.1627 29.4837C24.7827 29.4837 24.4301 29.581 24.1045 29.7755C23.7789 29.9701 23.4882 30.2369 23.2325 30.5759V34.887H22.6802V34.8869ZM30.7093 29.0446C31.0384 29.0446 31.3429 29.1004 31.6231 29.2119C31.8987 29.3204 32.1473 29.4867 32.3517 29.6993C32.5574 29.9127 32.718 30.1752 32.8336 30.4866C32.9492 30.7981 33.007 31.1557 33.007 31.5595C33.007 31.644 32.9942 31.7017 32.9687 31.7325C32.9432 31.7633 32.9031 31.7787 32.8486 31.7787H28.6292V31.8883C28.6292 32.3189 28.6801 32.6977 28.782 33.0245C28.8837 33.3514 29.0287 33.6254 29.2167 33.8465C29.4003 34.0643 29.6341 34.2355 29.8985 34.3455C30.1647 34.4569 30.4625 34.5127 30.7916 34.5127C31.0854 34.5127 31.34 34.4809 31.5556 34.4175C31.771 34.3541 31.9521 34.2829 32.0991 34.2041C32.246 34.1254 32.3625 34.0541 32.4488 33.9906C32.5349 33.9273 32.5976 33.8955 32.6368 33.8955C32.6876 33.8955 32.7269 33.9148 32.7543 33.9532L32.9071 34.1378C32.813 34.2532 32.6886 34.3608 32.534 34.4608C32.3791 34.5608 32.2068 34.6464 32.0168 34.7175C31.8182 34.791 31.6138 34.8479 31.4057 34.8876C31.1882 34.9298 30.9698 34.9511 30.7504 34.9511C30.3509 34.9511 29.9866 34.8828 29.6575 34.7463C29.3331 34.6132 29.0435 34.409 28.8104 34.1493C28.5746 33.8878 28.3925 33.5676 28.2638 33.1889C28.1352 32.8102 28.0709 32.3765 28.0709 31.8883C28.0709 31.4769 28.1306 31.0971 28.2502 30.7491C28.3697 30.401 28.542 30.1011 28.7672 29.8493C28.9924 29.5974 29.2686 29.4004 29.5958 29.2581C29.9228 29.1157 30.294 29.0445 30.7094 29.0445L30.7093 29.0446ZM30.7466 29.4298C30.4416 29.4298 30.1682 29.4748 29.9267 29.565C29.685 29.6551 29.4762 29.7846 29.3 29.9535C29.1238 30.1226 28.9813 30.3252 28.8722 30.5618C28.7632 30.7983 28.6911 31.063 28.6554 31.3559H32.5523C32.5523 31.0554 32.5087 30.7861 32.4216 30.5477C32.3344 30.3094 32.2116 30.1076 32.0532 29.9423C31.8949 29.7772 31.7048 29.6504 31.483 29.5621C31.2613 29.474 31.0158 29.4298 30.7466 29.4298ZM36.2248 29.0446C36.6488 29.0446 37.0282 29.1148 37.3631 29.2551C37.6977 29.3955 37.9801 29.5946 38.21 29.8522C38.4397 30.1098 38.6151 30.4203 38.736 30.7837C38.8569 31.1471 38.9173 31.5538 38.9173 32.0036C38.9173 32.4535 38.8568 32.8592 38.736 33.2207C38.615 33.5822 38.4397 33.8917 38.2101 34.1493C37.9801 34.4069 37.6977 34.605 37.3631 34.7434C37.0282 34.8819 36.6488 34.951 36.2248 34.951C35.8008 34.951 35.4216 34.8819 35.0868 34.7434C34.7518 34.605 34.4686 34.4069 34.2368 34.1493C34.005 33.8917 33.8286 33.5821 33.7078 33.2207C33.5869 32.8593 33.5265 32.4534 33.5265 32.0036C33.5265 31.5537 33.5869 31.1471 33.7078 30.7837C33.8288 30.4203 34.005 30.1099 34.2368 29.8522C34.4686 29.5946 34.7518 29.3955 35.0867 29.2551C35.4216 29.1148 35.8008 29.0446 36.2248 29.0446ZM36.1923 34.5659C36.5393 34.5659 36.8422 34.5069 37.1014 34.3889C37.3606 34.2709 37.5769 34.1017 37.7504 33.8811C37.9239 33.6606 38.0533 33.3946 38.1392 33.0833C38.2248 32.7718 38.2678 32.4227 38.2678 32.0357C38.2678 31.6527 38.2249 31.3046 38.1392 30.9912C38.0533 30.6778 37.9238 30.41 37.7504 30.1875C37.5793 29.9669 37.3566 29.7907 37.1014 29.6739C36.8422 29.5541 36.5392 29.4941 36.1923 29.4941C35.8456 29.4941 35.5424 29.5541 35.2833 29.6739C35.0281 29.7907 34.8054 29.9669 34.6343 30.1875C34.4609 30.4099 34.3303 30.6778 34.2426 30.9912C34.1549 31.3046 34.1111 31.6528 34.1111 32.0357C34.1111 32.4226 34.1549 32.7718 34.2426 33.0832C34.3303 33.3947 34.4608 33.6606 34.6343 33.881C34.8056 34.0999 35.0284 34.2742 35.2833 34.3888C35.5424 34.5069 35.8455 34.5658 36.1923 34.5658V34.5659ZM42.3966 34.7585H41.0943L38.7226 28.852H39.9143C40.0189 28.852 40.1071 28.8771 40.1788 28.9268C40.2504 28.9769 40.3 29.0401 40.3271 29.1168L41.4781 32.2715C41.5419 32.4492 41.5973 32.6298 41.6438 32.8127C41.6883 32.9893 41.7281 33.1657 41.763 33.3423C41.7978 33.1658 41.8375 32.9892 41.8821 32.8127C41.9289 32.6292 41.9861 32.4486 42.0536 32.2715L43.2338 29.1169C43.2609 29.04 43.3093 28.9769 43.3791 28.9269C43.4488 28.877 43.5321 28.852 43.6291 28.852H44.7628L42.3967 34.7585H42.3966ZM45.0874 28.9163H46.5812V34.8227H45.0874V28.9163ZM47.5554 34.8227V28.8805H48.4403C48.6278 28.8805 48.7506 28.9674 48.8093 29.1412L48.903 29.5813C49.006 29.4679 49.1166 29.3614 49.2341 29.2627C49.3479 29.1671 49.4717 29.0837 49.6032 29.0137C49.737 28.943 49.8786 28.8876 50.0251 28.8486C50.1754 28.8082 50.3404 28.7878 50.5202 28.7878C50.8989 28.7878 51.2105 28.8892 51.4548 29.0919C51.6989 29.2946 51.8816 29.5639 52.0026 29.8999C52.0963 29.7029 52.2135 29.5341 52.3541 29.393C52.49 29.2558 52.646 29.1396 52.817 29.0485C52.986 28.9594 53.1663 28.8931 53.3532 28.8516C53.5406 28.8093 53.7322 28.7879 53.9244 28.7878C54.2564 28.7878 54.5514 28.8381 54.8092 28.9384C55.067 29.0389 55.2837 29.1855 55.4595 29.3786C55.6353 29.5717 55.7691 29.8071 55.8609 30.0851C55.9527 30.3631 55.9987 30.6817 55.9987 31.0408V34.8227H54.5513V31.0408C54.5513 30.6623 54.4673 30.3776 54.2995 30.1864C54.1315 29.9953 53.8854 29.8998 53.5612 29.8998C53.4127 29.8998 53.2751 29.9249 53.1482 29.9751C53.023 30.0242 52.9093 30.0981 52.8141 30.1923C52.7185 30.287 52.6432 30.4057 52.5886 30.5485C52.5338 30.6913 52.5065 30.8554 52.5065 31.0408V34.8227H51.0536V31.0408C51.0536 30.6432 50.9725 30.3535 50.8104 30.172C50.6483 29.9906 50.4092 29.8998 50.0927 29.8998C49.8856 29.8998 49.6914 29.951 49.5098 30.0533C49.328 30.1556 49.1591 30.2956 49.003 30.4732V34.8227H47.5556H47.5554ZM45.0874 26.926H46.5812V28.1459H45.0874V26.926Z" fill="#444444"/>
</g>
<defs>
<linearGradient id="paint0_linear_77_217" x1="9.47112" y1="25.053" x2="9.47112" y2="38.6744" gradientUnits="userSpaceOnUse">
<stop stop-color="#16B0ED" stop-opacity="0.8"/>
<stop offset="1" stop-color="#0F59B2" stop-opacity="0.837"/>
</linearGradient>
<linearGradient id="paint1_linear_77_217" x1="17.8678" y1="25.0547" x2="17.8678" y2="38.6745" gradientUnits="userSpaceOnUse">
<stop stop-color="#7DB643"/>
<stop offset="1" stop-color="#367533"/>
</linearGradient>
<linearGradient id="paint2_linear_77_217" x1="13.6831" y1="25.0554" x2="13.6831" y2="38.6782" gradientUnits="userSpaceOnUse">
<stop stop-color="#88C649" stop-opacity="0.8"/>
<stop offset="1" stop-color="#439240" stop-opacity="0.84"/>
</linearGradient>
<clipPath id="clip0_77_217">
<rect width="48" height="13.7143" fill="white" transform="translate(8 25)"/>
</clipPath>
</defs>
</svg>
