<svg width="64" height="64" viewBox="0 0 64 64" fill="none" xmlns="http://www.w3.org/2000/svg">
<rect width="64" height="64" fill="#E3E5E8"/>
<g clip-path="url(#clip0_77_224)">
<path d="M47.8691 34.0316C48.989 25.2653 42.798 17.2506 34.0476 16.1309C25.2972 15.011 17.2506 21.202 16.1309 29.9524C15.011 38.7028 21.202 46.7334 29.9524 47.8691C38.7188 48.989 46.7334 42.798 47.8691 34.0316Z" fill="#FF6C37"/>
<path d="M37.7752 26.273L31.0244 33.0239L29.1206 31.1202C35.7595 24.4814 36.4154 25.0573 37.7751 26.273H37.7752Z" fill="white"/>
<path d="M31.0239 33.1838C30.9759 33.1838 30.9439 33.1678 30.9119 33.1358L28.9923 31.2322C28.9771 31.2177 28.9651 31.2004 28.9568 31.1811C28.9486 31.1619 28.9443 31.1412 28.9443 31.1202C28.9443 31.0993 28.9486 31.0786 28.9568 31.0594C28.9651 31.0401 28.9771 31.0227 28.9923 31.0083C35.743 24.2574 36.4469 24.8973 37.8707 26.1771C37.9027 26.2091 37.9187 26.2411 37.9187 26.2891C37.9187 26.3371 37.9027 26.3691 37.8707 26.4011L31.1199 33.1358C31.1039 33.1678 31.0559 33.1838 31.0239 33.1838ZM29.3443 31.1202L31.0239 32.7999L37.5348 26.2891C36.351 25.2333 35.551 24.9133 29.3443 31.1203V31.1202Z" fill="#FF6C37"/>
<path d="M32.9597 34.9594L31.1201 33.1196L37.8709 26.3689C39.6786 28.1926 36.9751 31.152 32.9597 34.9594Z" fill="white"/>
<path d="M32.9597 35.1195C32.9117 35.1195 32.8797 35.1035 32.8478 35.0715L31.0081 33.2318C30.9761 33.1998 30.9761 33.1678 30.9761 33.1198C30.9761 33.0719 30.9921 33.0398 31.0241 33.0079L37.7749 26.257C37.7894 26.2418 37.8068 26.2297 37.826 26.2215C37.8453 26.2132 37.866 26.209 37.8869 26.209C37.9079 26.209 37.9286 26.2132 37.9479 26.2215C37.9671 26.2297 37.9845 26.2418 37.999 26.257C38.2032 26.446 38.3646 26.6766 38.4722 26.9332C38.5798 27.1899 38.6312 27.4666 38.6228 27.7448C38.5908 29.5205 36.5753 31.776 33.0878 35.0715C33.0398 35.1035 32.9918 35.1195 32.9598 35.1195H32.9597ZM31.3441 33.1198C32.3678 34.1596 32.7998 34.5755 32.9597 34.7355C35.6472 32.176 38.2547 29.5525 38.2708 27.7448C38.2868 27.3289 38.1268 26.9129 37.8548 26.593L31.3441 33.1198Z" fill="#FF6C37"/>
<path d="M29.1524 31.1681L30.5121 32.5278C30.5441 32.5598 30.5441 32.5918 30.5121 32.6238C30.4961 32.6398 30.4961 32.6398 30.4801 32.6398L27.6646 33.2477C27.5206 33.2637 27.3926 33.1677 27.3606 33.0238C27.3446 32.9438 27.3766 32.8638 27.4246 32.8158L29.0564 31.1841C29.0884 31.1521 29.1364 31.1361 29.1524 31.1681Z" fill="white"/>
<path d="M27.6166 33.4078C27.3766 33.4078 27.2007 33.2159 27.2007 32.976C27.2007 32.864 27.2487 32.752 27.3287 32.672L28.9603 31.0402C29.0563 30.9602 29.1843 30.9602 29.2803 31.0402L30.6401 32.4C30.7361 32.48 30.7361 32.624 30.6401 32.72C30.6081 32.752 30.5761 32.768 30.5281 32.784L27.7126 33.3918C27.6806 33.3918 27.6486 33.4078 27.6166 33.4078ZM29.1043 31.3442L27.5366 32.912C27.5046 32.944 27.4886 32.992 27.5206 33.04C27.5366 33.088 27.5846 33.1039 27.6326 33.088L30.2721 32.512L29.1043 31.3442Z" fill="#FF6C37"/>
<path d="M41.3423 22.5299C40.3185 21.538 38.6708 21.57 37.679 22.6099C36.6872 23.6496 36.7192 25.2814 37.759 26.2731C38.1694 26.6697 38.6996 26.9193 39.2667 26.9829C39.8339 27.0466 40.4061 26.9208 40.8943 26.6251L39.0705 24.8014L41.3422 22.5299H41.3423Z" fill="white"/>
<path d="M39.5508 27.1529C38.0311 27.1529 36.7993 25.9212 36.7993 24.4014C36.7993 22.8817 38.0311 21.6499 39.5508 21.6499C40.2546 21.6499 40.9426 21.9219 41.4546 22.4178C41.4864 22.4498 41.5024 22.4818 41.5024 22.5298C41.5024 22.5778 41.4864 22.6098 41.4544 22.6418L39.2948 24.8013L40.9906 26.497C41.0546 26.561 41.0546 26.657 40.9906 26.721L40.9586 26.753C40.5426 27.0089 40.0467 27.153 39.5508 27.153V27.1529ZM39.5508 21.9859C38.2071 21.9859 37.1192 23.0737 37.1352 24.4174C37.1352 25.7612 38.2231 26.849 39.5668 26.833C39.9347 26.833 40.3027 26.753 40.6386 26.577L38.9589 24.9133C38.9269 24.8813 38.9109 24.8493 38.9109 24.8013C38.9109 24.7534 38.9269 24.7213 38.9589 24.6894L41.1026 22.5457C40.6706 22.1778 40.1267 21.9859 39.5508 21.9859Z" fill="#FF6C37"/>
<path d="M41.3903 22.5777L41.3583 22.5457L39.0708 24.8012L40.8784 26.6089C41.0544 26.4969 41.2303 26.3689 41.3743 26.2249C41.6167 25.9875 41.8095 25.7044 41.9416 25.3919C42.0738 25.0795 42.1426 24.7439 42.1441 24.4046C42.1456 24.0654 42.0797 23.7292 41.9503 23.4156C41.8209 23.102 41.6306 22.8172 41.3903 22.5777Z" fill="white"/>
<path d="M40.8943 26.7849C40.8463 26.7849 40.8143 26.7689 40.7823 26.7369L38.9585 24.9131C38.9266 24.8811 38.9106 24.8491 38.9106 24.8011C38.9106 24.7533 38.9266 24.7211 38.9586 24.6893L41.2301 22.4176C41.2446 22.4025 41.262 22.3904 41.2812 22.3821C41.3005 22.3739 41.3212 22.3696 41.3421 22.3696C41.3631 22.3696 41.3838 22.3739 41.4031 22.3821C41.4223 22.3904 41.4397 22.4025 41.4541 22.4176L41.5021 22.4496C42.574 23.5214 42.574 25.2491 41.5181 26.3369C41.3581 26.4969 41.1823 26.6409 40.9903 26.7529C40.9423 26.7689 40.9103 26.7849 40.8943 26.7849ZM39.2945 24.8011L40.9103 26.4169C41.0383 26.3369 41.1663 26.2249 41.2621 26.129C42.174 25.2171 42.222 23.7294 41.3421 22.7695L39.2946 24.8011H39.2945Z" fill="#FF6C37"/>
<path d="M38.0466 26.5611C37.862 26.3767 37.6117 26.2732 37.3508 26.2732C37.0898 26.2732 36.8396 26.3767 36.6549 26.5611L30.624 32.592L31.6318 33.5999L38.0146 28.0009C38.4306 27.6489 38.4625 27.025 38.1106 26.6091C38.0786 26.5931 38.0626 26.5771 38.0466 26.5611Z" fill="white"/>
<path d="M31.616 33.7597C31.568 33.7597 31.536 33.7437 31.504 33.7117L30.4963 32.7038C30.4811 32.6894 30.469 32.672 30.4608 32.6528C30.4525 32.6335 30.4482 32.6128 30.4482 32.5918C30.4482 32.5709 30.4525 32.5502 30.4608 32.5309C30.469 32.5117 30.4811 32.4943 30.4963 32.4798L36.5271 26.449C36.633 26.3425 36.7589 26.258 36.8975 26.2004C37.0362 26.1427 37.1849 26.113 37.335 26.113C37.4852 26.113 37.6338 26.1427 37.7725 26.2004C37.9111 26.258 38.037 26.3425 38.1429 26.449C38.2494 26.5549 38.3338 26.6807 38.3915 26.8194C38.4491 26.958 38.4788 27.1067 38.4788 27.2568C38.4788 27.407 38.4491 27.5557 38.3915 27.6943C38.3338 27.833 38.2494 27.9588 38.1429 28.0647L38.0949 28.1127L31.712 33.7117C31.696 33.7437 31.664 33.7597 31.616 33.7597ZM30.8481 32.5918L31.632 33.3757L37.9029 27.8727C38.2549 27.5847 38.2869 27.0568 37.9989 26.705C37.711 26.353 37.183 26.321 36.8311 26.609C36.8151 26.625 36.7991 26.641 36.7671 26.657L30.8481 32.592V32.5918Z" fill="#FF6C37"/>
<path d="M26.0012 39.4546C25.9373 39.4866 25.9053 39.5506 25.9212 39.6146L26.1932 40.7664C26.2572 40.9264 26.1612 41.1184 25.9852 41.1664C25.8573 41.2144 25.7133 41.1664 25.6333 41.0704L23.8735 39.3266L29.6165 33.5837L31.6003 33.6157L32.944 34.9595C32.624 35.2314 30.6884 37.1031 26.0012 39.4546Z" fill="white"/>
<path d="M25.8732 41.3263C25.7452 41.3263 25.6172 41.2785 25.5372 41.1825L23.7935 39.4387C23.7616 39.4067 23.7456 39.3747 23.7456 39.3268C23.7456 39.2788 23.7616 39.2468 23.7936 39.2148L29.5365 33.4718C29.5685 33.4398 29.6165 33.4238 29.6485 33.4238L31.6322 33.4558C31.6801 33.4558 31.7122 33.4718 31.7441 33.5038L33.0879 34.8476C33.1199 34.8796 33.1359 34.9276 33.1359 34.9756C33.1359 35.0236 33.1199 35.0556 33.0719 35.0876L32.9599 35.1835C31.2642 36.6712 28.9606 38.159 26.0971 39.5827L26.3691 40.7186C26.4171 40.9265 26.3211 41.1505 26.1291 41.2623C26.0331 41.3105 25.9531 41.3265 25.8732 41.3265V41.3263ZM24.1135 39.3268L25.7612 40.9585C25.8092 41.0385 25.9052 41.0705 25.9851 41.0225C26.0651 40.9745 26.0971 40.8785 26.0491 40.7985L25.7772 39.6467C25.7452 39.5027 25.8092 39.3747 25.9372 39.3108C28.7686 37.8871 31.0562 36.4153 32.736 34.9596L31.5522 33.7758L29.7125 33.7438L24.1135 39.3268Z" fill="#FF6C37"/>
<path d="M22.5135 40.7024L23.8891 39.3267L25.9369 41.3742L22.6734 41.1503C22.5294 41.1343 22.4334 41.0063 22.4495 40.8623C22.4495 40.7983 22.4655 40.7343 22.5134 40.7023L22.5135 40.7024Z" fill="white"/>
<path d="M25.937 41.5181L22.6575 41.2943C22.4175 41.2783 22.2575 41.0703 22.2736 40.8303C22.2896 40.7343 22.3216 40.6384 22.4016 40.5744L23.7773 39.1986C23.7918 39.1835 23.8091 39.1714 23.8284 39.1632C23.8476 39.1549 23.8683 39.1507 23.8893 39.1507C23.9102 39.1507 23.9309 39.1549 23.9502 39.1632C23.9694 39.1714 23.9868 39.1835 24.0012 39.1986L26.0488 41.2461C26.0968 41.2943 26.1128 41.3583 26.0808 41.4221C26.0488 41.4861 26.0008 41.5181 25.937 41.5181ZM23.8892 39.5506L22.6255 40.8144C22.5775 40.8463 22.5775 40.9263 22.6255 40.9583C22.6415 40.9743 22.6575 40.9903 22.6895 40.9903L25.521 41.1823L23.8892 39.5505V39.5506ZM29.0563 34.3195C28.9603 34.3195 28.8963 34.2395 28.8963 34.1595C28.8963 34.1115 28.9123 34.0795 28.9443 34.0475L30.4961 32.4958C30.5105 32.4806 30.5279 32.4685 30.5471 32.4603C30.5664 32.452 30.5871 32.4478 30.6081 32.4478C30.629 32.4478 30.6498 32.452 30.669 32.4603C30.6883 32.4685 30.7056 32.4806 30.7201 32.4958L31.7278 33.5036C31.7758 33.5516 31.7918 33.5996 31.7758 33.6636C31.7598 33.7116 31.7118 33.7596 31.6478 33.7756L29.0883 34.3194H29.0563V34.3195ZM30.6081 32.8318L29.5522 33.8875L31.28 33.5196L30.6081 32.8318Z" fill="#FF6C37"/>
<path d="M31.5998 33.6157L29.8402 33.9995C29.7122 34.0315 29.5842 33.9515 29.5522 33.8235C29.5362 33.7435 29.5522 33.6635 29.6162 33.5997L30.592 32.6238L31.5998 33.6157Z" fill="white"/>
<path d="M29.8082 34.1597C29.7555 34.1602 29.7033 34.1503 29.6545 34.1303C29.6057 34.1104 29.5614 34.081 29.5242 34.0437C29.4869 34.0065 29.4575 33.9622 29.4376 33.9134C29.4177 33.8646 29.4077 33.8124 29.4082 33.7597C29.4082 33.6478 29.4562 33.5518 29.5202 33.4718L30.4961 32.4959C30.5105 32.4808 30.5279 32.4687 30.5472 32.4604C30.5664 32.4522 30.5872 32.4479 30.6081 32.4479C30.629 32.4479 30.6498 32.4522 30.669 32.4604C30.6883 32.4687 30.7057 32.4808 30.7201 32.4959L31.7278 33.5038C31.7758 33.5518 31.7918 33.5998 31.7758 33.6638C31.7598 33.7118 31.7118 33.7598 31.6478 33.7758L29.8882 34.1597H29.8082ZM30.6081 32.8319L29.7442 33.6957C29.7122 33.7278 29.7122 33.7598 29.7282 33.7917C29.7442 33.8237 29.7762 33.8397 29.8242 33.8397L31.296 33.5197L30.6081 32.8319ZM41.4061 24.1134C41.3741 24.0176 41.2621 23.9696 41.1661 24.0016C41.0702 24.0336 41.0222 24.1454 41.0542 24.2416C41.0542 24.2574 41.0702 24.2734 41.0702 24.2894C41.1662 24.4814 41.1342 24.7214 41.0062 24.8973C40.9422 24.9773 40.9582 25.0893 41.0222 25.1533C41.1022 25.2173 41.2141 25.2013 41.2781 25.1213C41.5181 24.8173 41.5661 24.4334 41.4061 24.1134Z" fill="#FF6C37"/>
</g>
<defs>
<clipPath id="clip0_77_224">
<rect width="32" height="32" fill="white" transform="translate(16 16)"/>
</clipPath>
</defs>
</svg>
