<svg width="64" height="64" viewBox="0 0 64 64" fill="none" xmlns="http://www.w3.org/2000/svg">
<rect width="64" height="64" fill="#E3E5E8"/>
<g clip-path="url(#clip0_215_298)">
<path d="M47.3965 30.5745L33.425 16.6037C32.6209 15.7991 31.3159 15.7991 30.5107 16.6037L27.6095 19.505L31.2899 23.1853C32.1451 22.8963 33.1259 23.0902 33.8076 23.772C34.4926 24.4581 34.6851 25.4472 34.3891 26.3052L37.936 29.8522C38.7941 29.5566 39.7843 29.7478 40.4696 30.4343C41.4275 31.3918 41.4275 32.9437 40.4696 33.9018C39.5115 34.8601 37.9596 34.8601 37.001 33.9018C36.2805 33.1806 36.1025 32.1225 36.4673 31.2348L33.1595 27.9271L33.1591 36.6317C33.3989 36.7503 33.6179 36.9069 33.8076 37.0955C34.7655 38.053 34.7655 39.605 33.8076 40.5638C32.8495 41.5216 31.2969 41.5216 30.3401 40.5638C29.3822 39.605 29.3822 38.0531 30.3401 37.0956C30.5697 36.8659 30.8425 36.684 31.1427 36.5605V27.7747C30.842 27.652 30.5691 27.47 30.3401 27.2396C29.6144 26.5148 29.4399 25.45 29.8118 24.5588L26.1838 20.9305L16.6037 30.5098C15.7987 31.3152 15.7987 32.6203 16.6037 33.4251L30.5755 47.3961C31.3799 48.2008 32.6846 48.2008 33.49 47.3961L47.3964 33.49C48.2011 32.685 48.2011 31.3791 47.3964 30.5745" fill="#DE4C36"/>
</g>
<defs>
<clipPath id="clip0_215_298">
<rect width="32" height="32" fill="white" transform="translate(16 16)"/>
</clipPath>
</defs>
</svg>
