<svg width="25" height="25" viewBox="0 0 25 25" fill="none" xmlns="http://www.w3.org/2000/svg">
<g clip-path="url(#clip0_102_14)">
<path d="M22.7364 0.691098L2.65743 0.69104C2.1553 0.69104 0.948415 0.69104 0.948415 0.69104C0.948415 0.69104 0.948416 3.59895 0.948416 3.98394L0.948416 21.7246C0.948416 22.2196 0.948242 23.6419 0.948242 24.3822C1.3235 24.3822 2.28123 24.3822 2.65743 24.3822L23.2341 24.3822C23.7745 24.3822 24.1984 24.3822 24.9484 24.3822C24.9484 24.012 24.9484 22.0761 24.9484 21.7246L24.9484 3.98394C24.9484 3.59616 24.9484 1.10774 24.9484 0.691159C23.9482 0.69127 23.2353 0.691098 22.7364 0.691098ZM8.20199 20.2578H4.64484L4.64484 10.3648L8.20734 10.3648L8.20734 20.2578H8.20199ZM6.42342 9.01369C5.28234 9.01369 4.36092 8.21319 4.36092 7.23223C4.36092 6.25126 5.28234 5.45076 6.42342 5.45076C7.55913 5.45076 8.48592 6.25126 8.48592 7.23223C8.48592 8.21782 7.56449 9.01369 6.42342 9.01369ZM21.5359 20.2578H17.9788V15.4455C17.9788 14.2979 17.952 12.8219 16.1306 12.8219C14.277 12.8219 13.9931 14.0712 13.9931 15.3622L13.9931 20.2578L10.4359 20.2578L10.4359 10.3648H13.8484V11.716H13.8966C14.3734 10.9386 15.5359 10.1196 17.2663 10.1196C20.8663 10.1196 21.5359 12.1694 21.5359 14.8347V20.2578Z" fill="black"/>
</g>
<defs>
<clipPath id="clip0_102_14">
<rect width="24" height="23.6912" fill="white" transform="translate(0.948242 0.691162)"/>
</clipPath>
</defs>
</svg>
