<svg width="64" height="64" viewBox="0 0 64 64" fill="none" xmlns="http://www.w3.org/2000/svg">
<rect width="64" height="64" fill="#E3E5E8"/>
<g clip-path="url(#clip0_72_194)">
<path d="M32.0002 47.9406C31.56 47.9406 31.1492 47.8232 30.7678 47.6178L26.865 45.2997C26.2781 44.9769 26.5716 44.8595 26.7476 44.8008C27.5399 44.5367 27.6866 44.4781 28.5082 44.0085C28.5963 43.9498 28.7137 43.9791 28.8016 44.0378L31.7948 45.8278C31.9121 45.8865 32.0588 45.8865 32.1469 45.8278L43.8551 39.0495C43.9725 38.9908 44.0312 38.8734 44.0312 38.7267V25.1991C44.0312 25.0524 43.9725 24.935 43.8551 24.8763L32.1469 18.1272C32.0295 18.0685 31.8828 18.0685 31.7948 18.1272L20.0865 24.8765C19.9692 24.9351 19.9105 25.0819 19.9105 25.1992V38.7267C19.9105 38.8441 19.9692 38.9908 20.0865 39.0495L23.2851 40.898C25.0164 41.7783 26.102 40.7513 26.102 39.7243V26.3728C26.102 26.1968 26.2488 26.0207 26.4542 26.0207H27.9508C28.1268 26.0207 28.3029 26.1674 28.3029 26.3728V39.7242C28.3029 42.0424 27.041 43.3922 24.8402 43.3922C24.1654 43.3922 23.6372 43.3922 22.1407 42.6586L19.0595 40.898C18.2966 40.4578 17.8271 39.6362 17.8271 38.7559V25.2286C17.8271 24.3483 18.2966 23.5267 19.0595 23.0865L30.7678 16.3081C31.5013 15.8973 32.499 15.8973 33.2325 16.3081L44.9408 23.0865C45.7037 23.5266 46.1732 24.3482 46.1732 25.2286V38.756C46.1732 39.6363 45.7037 40.4579 44.9408 40.898L33.2325 47.6766C32.8511 47.8527 32.411 47.9407 32.0002 47.9407V47.9406ZM35.6094 38.6386C30.4742 38.6386 29.4179 36.2912 29.4179 34.2958C29.4179 34.1197 29.5646 33.9436 29.77 33.9436H31.2958C31.4719 33.9436 31.6187 34.061 31.6187 34.2371C31.8534 35.7922 32.5283 36.5552 35.6387 36.5552C38.1036 36.5552 39.1601 35.9977 39.1601 34.6773C39.1601 33.9143 38.8667 33.3568 35.0226 32.9752C31.8241 32.6525 29.8287 31.9482 29.8287 29.3954C29.8287 27.0185 31.824 25.61 35.1693 25.61C38.9252 25.61 40.7739 26.9011 41.0087 29.7181C41.0087 29.8061 40.9793 29.8941 40.9206 29.9822C40.8619 30.0409 40.7739 30.0995 40.6859 30.0995H39.1601C39.0133 30.0995 38.8667 29.9822 38.8372 29.8355C38.4851 28.2216 37.5755 27.6935 35.1693 27.6935C32.4698 27.6935 32.1469 28.6324 32.1469 29.3366C32.1469 30.1877 32.5283 30.4517 36.1669 30.9211C39.7763 31.3906 41.4781 32.0656 41.4781 34.5892C41.4488 37.1714 39.3361 38.6386 35.6094 38.6386V38.6386Z" fill="#539E43"/>
</g>
<defs>
<clipPath id="clip0_72_194">
<rect width="28.35" height="32" fill="white" transform="translate(17.8252 16)"/>
</clipPath>
</defs>
</svg>
