<svg width="64" height="64" viewBox="0 0 64 64" fill="none" xmlns="http://www.w3.org/2000/svg">
<rect width="64" height="64" fill="#E3E5E8"/>
<path d="M30.4858 36.3809C30.565 37.4245 30.5496 38.4731 30.4398 39.5139C30.4351 39.6602 30.3922 39.8027 30.3151 39.9272C30.2381 40.0516 30.1297 40.1536 30.0008 40.2229C29.1698 40.8399 26.3848 40.9879 26.0378 39.6769C25.9098 39.6719 26.0118 39.2479 25.8898 39.2639C25.6462 39.2439 25.4107 39.167 25.2022 39.0393C24.9938 38.9117 24.8183 38.7368 24.6898 38.5289C24.6948 37.0949 24.8528 31.9219 22.2898 33.3149C21.7328 33.6253 21.3151 34.1364 21.1218 34.7439C20.9491 35.274 20.8679 35.8296 20.8818 36.3869C20.8618 37.1009 21.0398 37.8819 21.0658 38.7389C21.0758 39.1219 21.1368 39.2189 20.8518 39.5449C20.3928 40.0699 19.5918 39.6269 19.1588 39.0499C18.9756 38.7593 18.875 38.4243 18.8678 38.0809C18.5234 34.335 18.8622 30.5577 19.8678 26.9329C20.2348 25.7029 20.3628 25.5249 21.5308 25.2489C22.8598 24.9566 24.2265 24.8756 25.5808 25.0089C26.6318 24.6669 29.1258 22.8149 30.2018 24.2849C31.8344 23.9224 33.5231 23.8905 35.1683 24.1911C36.8134 24.4917 38.3818 25.1186 39.7808 26.0349C41.1978 26.1422 42.6198 26.1679 44.0398 26.1119C44.2398 25.9839 44.4738 25.8469 44.6778 25.7289C44.8275 25.6275 44.9957 25.5565 45.1728 25.5199C45.4028 25.4839 45.7028 25.4739 45.7728 25.7599C45.8337 26.0534 45.8542 26.3539 45.8338 26.6529C45.8268 26.8332 45.7597 27.006 45.6432 27.1437C45.5267 27.2814 45.3674 27.3762 45.1908 27.4129C44.7916 27.3474 44.4045 27.222 44.0428 27.0409C42.7428 27.0769 41.9428 27.0049 40.6428 27.0409C40.8518 27.2649 40.8428 27.4129 40.9948 27.7089C41.3684 28.6922 41.4931 29.7526 41.3579 30.7957C41.2227 31.8389 40.8317 32.8324 40.2198 33.6879C40.1278 35.1779 40.2398 36.6829 40.2508 38.1779C40.2558 38.6929 40.2918 39.1829 39.8068 39.5249C39.379 39.7814 38.8981 39.9364 38.4011 39.978C37.9041 40.0196 37.4042 39.9467 36.9398 39.7649C36.6866 39.6196 36.4606 39.4315 36.2718 39.2089C36.1057 39.2271 35.9384 39.2305 35.7718 39.2189C35.4885 39.1397 35.2436 38.9602 35.0828 38.7139C34.9906 38.5455 34.912 38.3699 34.8478 38.1889C34.8478 37.4889 34.8218 37.2149 34.8218 36.5159C33.3801 36.774 31.9007 36.7324 30.4758 36.3939L30.4858 36.3809Z" fill="#CCCCCC"/>
<path d="M28.0951 40.8391C27.682 40.8453 27.2708 40.7831 26.8781 40.6551C26.66 40.5966 26.4586 40.488 26.2899 40.338C26.1212 40.188 25.9898 40.0008 25.9061 39.7911C25.8332 39.7003 25.7974 39.5852 25.8061 39.4691V39.4241C25.5519 39.386 25.3088 39.2939 25.0932 39.154C24.8776 39.0141 24.6944 38.8297 24.5561 38.6131L24.5321 38.5741V38.3141C24.5411 37.1321 24.5641 33.9911 23.4981 33.3521C23.3186 33.2649 23.1189 33.2282 22.9202 33.2458C22.7215 33.2634 22.5313 33.3347 22.3701 33.4521C21.8446 33.7449 21.4511 34.2275 21.2701 34.8011C21.1052 35.3138 21.0281 35.8507 21.0421 36.3891C21.0421 36.7906 21.0705 37.1916 21.1271 37.5891C21.1701 37.9551 21.2141 38.3351 21.2271 38.7341C21.2271 38.7931 21.2271 38.8441 21.2341 38.8901C21.2568 39.0284 21.245 39.1702 21.1996 39.3028C21.1543 39.4354 21.0768 39.5547 20.9741 39.6501C20.8928 39.746 20.7906 39.8219 20.6752 39.8719C20.5599 39.9218 20.4346 39.9445 20.3091 39.9381C20.0528 39.9027 19.8068 39.8139 19.587 39.6775C19.3672 39.5411 19.1785 39.36 19.0331 39.1461C18.828 38.8328 18.7163 38.4676 18.7111 38.0931C18.3622 34.3276 18.7038 30.53 19.7191 26.8871C20.0941 25.6321 20.2591 25.3871 21.4981 25.0941C22.8329 24.8003 24.2055 24.717 25.5661 24.8471C25.8651 24.7306 26.1573 24.5971 26.4411 24.4471C27.6731 23.8311 29.3511 22.9941 30.2721 24.1131C31.9044 23.7609 33.5904 23.7357 35.2326 24.0392C36.8747 24.3427 38.4404 24.9687 39.8391 25.8811C41.2235 25.9852 42.6128 26.0092 44.0001 25.9531C44.2001 25.8301 44.4121 25.7021 44.6061 25.5901L44.6621 25.5581C44.812 25.4597 44.9799 25.3917 45.1561 25.3581C45.6001 25.2891 45.8561 25.4111 45.9331 25.7191C45.9972 26.0277 46.019 26.3436 45.9981 26.6581C45.988 26.8766 45.9044 27.0853 45.7608 27.2503C45.6172 27.4153 45.4221 27.527 45.2071 27.5671H45.1811L45.1561 27.5601C45.0697 27.538 44.983 27.5174 44.8961 27.4981C44.584 27.4447 44.2819 27.3442 44.0001 27.2001C43.3671 27.2161 42.8451 27.2071 42.3411 27.2001C41.9081 27.1931 41.4631 27.1851 40.9471 27.1931C40.9791 27.2561 41.0021 27.3171 41.0271 27.3791C41.0595 27.4665 41.0969 27.552 41.1391 27.6351C41.527 28.6398 41.6605 29.7249 41.5278 30.7937C41.395 31.8625 41 32.8818 40.3781 33.7611C40.3221 34.7271 40.3511 35.7181 40.3781 36.6771C40.3931 37.1681 40.4081 37.6771 40.4111 38.1771V38.2631C40.4592 38.52 40.437 38.7851 40.3466 39.0303C40.2563 39.2756 40.1013 39.4918 39.8981 39.6561C39.4488 39.9296 38.9423 40.0951 38.4183 40.1397C37.8943 40.1843 37.367 40.1068 36.8781 39.9131C36.6628 39.8065 36.471 39.6579 36.3141 39.4761C36.2791 39.4401 36.2441 39.4041 36.2081 39.3701C36.1591 39.3701 36.1081 39.3761 36.0631 39.3811C35.9535 39.3983 35.8419 39.3963 35.7331 39.3751C35.4114 39.2861 35.1331 39.0832 34.9501 38.8041C34.8797 38.6906 34.8223 38.5695 34.7791 38.4431C34.7556 38.3797 34.7303 38.317 34.7031 38.2551L34.6891 38.2241V38.1901C34.6891 37.8431 34.6831 37.5961 34.6761 37.3581C34.6711 37.1581 34.6661 36.9581 34.6641 36.6991C33.3366 36.9175 31.9801 36.8863 30.6641 36.6071C30.7242 37.5842 30.7024 38.5646 30.5991 39.5381C30.5915 39.7049 30.5417 39.8671 30.4542 40.0093C30.3668 40.1515 30.2445 40.2691 30.0991 40.3511C29.4898 40.698 28.7955 40.8671 28.0951 40.8391V40.8391ZM26.1261 39.5211H26.1621L26.1921 39.6351C26.2525 39.8118 26.3568 39.9704 26.4951 40.0959C26.6334 40.2215 26.8013 40.31 26.9831 40.3531C27.9538 40.649 29.0015 40.5562 29.9051 40.0941C30.0161 40.0375 30.1097 39.9518 30.1757 39.8461C30.2418 39.7404 30.2779 39.6187 30.2801 39.4941C30.3846 38.5056 30.403 37.5098 30.3351 36.5181L30.2501 36.4941L30.6001 35.8001L30.6411 36.2631C32.0114 36.5661 33.4281 36.596 34.8101 36.3511L34.9911 36.3271V36.5091C34.9911 36.8561 34.9971 37.1031 35.0041 37.3411C35.0111 37.5791 35.0161 37.8141 35.0171 38.1481C35.0421 38.2071 35.0641 38.2641 35.0861 38.3191C35.1214 38.4239 35.168 38.5244 35.2251 38.6191C35.3651 38.8336 35.5783 38.99 35.8251 39.0591C35.8967 39.0698 35.9695 39.0698 36.0411 39.0591C36.122 39.0495 36.2035 39.0452 36.2851 39.0461H36.3451L36.3891 39.0871C36.4431 39.1371 36.4971 39.1921 36.5511 39.2471C36.6794 39.3976 36.8356 39.5218 37.0111 39.6131C37.4504 39.7845 37.923 39.8534 38.3929 39.8146C38.8629 39.7758 39.3178 39.6303 39.7231 39.3891C40.1111 39.1151 40.1061 38.7391 40.1001 38.2621V38.1751C40.1001 37.6751 40.0821 37.1751 40.0671 36.6831C40.0381 35.6961 40.0081 34.6751 40.0671 33.6741V33.6081L40.1171 33.5641C40.7066 32.735 41.0824 31.7733 41.2113 30.7642C41.3402 29.7551 41.2182 28.7298 40.8561 27.7791C40.8086 27.6859 40.7666 27.5901 40.7301 27.4921C40.6898 27.3634 40.6215 27.2452 40.5301 27.1461L40.2891 26.8871L40.6421 26.8771C41.2961 26.8591 41.8301 26.8681 42.3481 26.8771C42.8661 26.8861 43.3931 26.8951 44.0391 26.8771H44.0861L44.1261 26.9021C44.3867 27.0434 44.6688 27.141 44.9611 27.1911C45.0431 27.2101 45.1241 27.2281 45.2031 27.2481C45.3346 27.2072 45.4503 27.1268 45.5346 27.0179C45.6188 26.9089 45.6675 26.7767 45.6741 26.6391C45.6931 26.3554 45.6736 26.0705 45.6161 25.7921C45.6021 25.7311 45.5751 25.6161 45.2001 25.6751C45.0629 25.7021 44.9324 25.7558 44.8161 25.8331L44.7601 25.8651C44.5601 25.9791 44.3311 26.1181 44.1291 26.2441L44.0921 26.2671H44.0491C42.6228 26.3255 41.1943 26.2998 39.7711 26.1901H39.7291L39.6941 26.1661C38.3126 25.2603 36.7635 24.6409 35.1384 24.3446C33.5133 24.0483 31.8453 24.0811 30.2331 24.4411L30.1331 24.4591L30.0741 24.3791C29.3271 23.3591 27.7401 24.1521 26.5811 24.7311C26.2742 24.8952 25.9569 25.0389 25.6311 25.1611L25.5991 25.1711H25.5661C24.2286 25.0392 22.8787 25.1188 21.5661 25.4071C20.4451 25.6711 20.3661 25.8071 20.0191 26.9811C19.0136 30.5861 18.6747 34.3444 19.0191 38.0711C19.0212 38.384 19.1105 38.6902 19.2771 38.9551C19.3948 39.1306 19.5471 39.2803 19.7248 39.3948C19.9024 39.5093 20.1016 39.5863 20.3101 39.6211C20.3881 39.6256 20.4661 39.6118 20.5378 39.5807C20.6096 39.5496 20.673 39.5022 20.7231 39.4421C20.7983 39.3779 20.8549 39.2946 20.8869 39.201C20.9189 39.1074 20.9252 39.007 20.9051 38.9101C20.9051 38.8611 20.8991 38.8101 20.8981 38.7461C20.8828 38.372 20.8494 37.9989 20.7981 37.6281C20.7396 37.2164 20.7105 36.801 20.7111 36.3851C20.6964 35.8082 20.7813 35.2331 20.9621 34.6851C21.17 34.0436 21.613 33.5045 22.2021 33.1761C22.4108 33.0295 22.6556 32.9426 22.9101 32.925C23.1646 32.9074 23.4191 32.9596 23.6461 33.0761C24.8691 33.8091 24.8461 36.9661 24.8361 38.3141V38.4811C24.9505 38.6546 25.1021 38.8004 25.2799 38.908C25.4577 39.0156 25.6573 39.0822 25.8641 39.1031C25.8908 39.1001 25.9179 39.1026 25.9436 39.1103C25.9694 39.118 25.9934 39.1309 26.0141 39.1481C26.0502 39.1887 26.0778 39.2362 26.095 39.2878C26.1122 39.3394 26.1187 39.3939 26.1141 39.4481C26.1231 39.4711 26.1241 39.5001 26.1261 39.5211V39.5211Z" fill="#CCCCCC"/>
<path d="M29.891 35.981C29.9703 37.0246 29.9549 38.0732 29.845 39.114C29.8404 39.2603 29.7974 39.4028 29.7204 39.5273C29.6433 39.6517 29.5349 39.7537 29.406 39.823C28.575 40.44 25.79 40.588 25.443 39.277C25.315 39.272 25.417 38.848 25.295 38.864C25.0514 38.844 24.8159 38.7671 24.6075 38.6394C24.3991 38.5118 24.2235 38.3369 24.095 38.129C24.1 36.695 24.258 31.522 21.695 32.915C21.1381 33.2254 20.7204 33.7365 20.527 34.344C20.3543 34.8741 20.2732 35.4297 20.287 35.987C20.267 36.701 20.445 37.482 20.471 38.339C20.481 38.722 20.542 38.819 20.257 39.145C19.798 39.67 18.997 39.227 18.564 38.65C18.3809 38.3594 18.2803 38.0244 18.273 37.681C17.9287 33.9351 18.2675 30.1578 19.273 26.533C19.64 25.303 19.768 25.125 20.936 24.849C22.265 24.5567 23.6318 24.4757 24.986 24.609C26.037 24.267 28.531 22.415 29.607 23.885C31.2397 23.5225 32.9284 23.4906 34.5735 23.7912C36.2187 24.0918 37.787 24.7187 39.186 25.635C40.6031 25.7423 42.0251 25.768 43.445 25.712C43.645 25.584 43.879 25.447 44.083 25.329C44.2328 25.2276 44.4009 25.1566 44.578 25.12C44.808 25.084 45.108 25.074 45.178 25.36C45.2389 25.6535 45.2595 25.954 45.239 26.253C45.2321 26.4333 45.165 26.6061 45.0485 26.7438C44.9319 26.8815 44.7727 26.9763 44.596 27.013C44.1968 26.9475 43.8098 26.8221 43.448 26.641C42.148 26.677 41.348 26.605 40.048 26.641C40.257 26.865 40.248 27.013 40.4 27.309C40.7737 28.2923 40.8984 29.3527 40.7632 30.3958C40.628 31.439 40.237 32.4325 39.625 33.288C39.533 34.778 39.645 36.283 39.656 37.778C39.661 38.293 39.697 38.783 39.212 39.125C38.7843 39.3815 38.3034 39.5365 37.8064 39.5781C37.3094 39.6197 36.8095 39.5468 36.345 39.365C36.0919 39.2197 35.8659 39.0316 35.677 38.809C35.511 38.8272 35.3437 38.8306 35.177 38.819C34.8937 38.7398 34.6489 38.5603 34.488 38.314C34.3958 38.1456 34.3173 37.97 34.253 37.789C34.253 37.089 34.227 36.815 34.227 36.116C32.7853 36.3741 31.306 36.3325 29.881 35.994L29.891 35.981Z" fill="#373435"/>
<path d="M27.4999 40.4389C27.0869 40.4451 26.6757 40.3829 26.2829 40.2549C26.0649 40.1964 25.8635 40.0878 25.6948 39.9378C25.526 39.7878 25.3946 39.6006 25.3109 39.3909C25.238 39.3001 25.2023 39.185 25.2109 39.0689V39.0239C24.9567 38.9858 24.7137 38.8937 24.4981 38.7538C24.2824 38.6139 24.0993 38.4295 23.9609 38.2129L23.9369 38.1739V37.9139C23.9459 36.7319 23.9689 33.5909 22.9029 32.9519C22.7235 32.8647 22.5237 32.828 22.3251 32.8456C22.1264 32.8632 21.9362 32.9345 21.7749 33.0519C21.2495 33.3447 20.8559 33.8273 20.6749 34.4009C20.51 34.9136 20.433 35.4505 20.4469 35.9889C20.4469 36.3904 20.4753 36.7914 20.5319 37.1889C20.5749 37.5559 20.6189 37.9349 20.6319 38.3349C20.6319 38.3939 20.6319 38.4449 20.6389 38.4909C20.6617 38.6292 20.6498 38.771 20.6045 38.9036C20.5591 39.0362 20.4816 39.1555 20.3789 39.2509C20.2977 39.3469 20.1955 39.4228 20.0801 39.4728C19.9648 39.5227 19.8394 39.5454 19.7139 39.5389C19.4577 39.5035 19.2117 39.4147 18.9919 39.2783C18.7721 39.1419 18.5834 38.9608 18.4379 38.7469C18.2329 38.4336 18.1212 38.0684 18.1159 37.6939C17.767 33.928 18.1086 30.1301 19.1239 26.4869C19.4989 25.2319 19.6639 24.9869 20.9029 24.6939C22.2378 24.4001 23.6103 24.3168 24.9709 24.4469C25.27 24.3305 25.5621 24.1969 25.8459 24.0469C27.0779 23.4309 28.7559 22.5929 29.6769 23.7129C31.3093 23.3609 32.9954 23.3359 34.6375 23.6396C36.2797 23.9432 37.8453 24.5694 39.2439 25.4819C40.6267 25.5865 42.0143 25.6112 43.3999 25.5559C43.5949 25.4349 43.8129 25.3039 44.0059 25.1929L44.0619 25.1609C44.2118 25.0625 44.3797 24.9945 44.5559 24.9609C44.9999 24.8919 45.2559 25.0139 45.3329 25.3219C45.3971 25.6305 45.4189 25.9464 45.3979 26.2609C45.3879 26.4794 45.3043 26.6881 45.1607 26.8531C45.0171 27.0181 44.8219 27.1298 44.6069 27.1699H44.5809L44.5559 27.1629C44.4696 27.1409 44.3829 27.1202 44.2959 27.1009C43.9862 27.0462 43.6865 26.9451 43.4069 26.8009C42.7739 26.8169 42.2519 26.8079 41.7479 26.8009C41.3149 26.7939 40.8699 26.7859 40.3539 26.7939C40.3859 26.8569 40.4089 26.9179 40.4339 26.9799C40.4664 27.0673 40.5038 27.1528 40.5459 27.2359C40.9338 28.2406 41.0672 29.3257 40.9345 30.3945C40.8017 31.4632 40.4068 32.4826 39.7849 33.3619C39.7289 34.3279 39.7579 35.3189 39.7849 36.2769C39.7989 36.7689 39.8139 37.2769 39.8179 37.7769V37.8629C39.8662 38.1197 39.8441 38.3848 39.7539 38.63C39.6638 38.8752 39.509 39.0915 39.3059 39.2559C38.8567 39.5294 38.3502 39.695 37.8261 39.7395C37.3021 39.7841 36.7749 39.7066 36.2859 39.5129C36.0706 39.4063 35.8789 39.2578 35.7219 39.0759C35.6869 39.0399 35.6519 39.0039 35.6159 38.9699C35.5669 38.9699 35.5159 38.9759 35.4709 38.9809C35.3614 38.9982 35.2497 38.9962 35.1409 38.9749C34.8193 38.8859 34.541 38.683 34.3579 38.4039C34.2875 38.2904 34.2301 38.1693 34.1869 38.0429C34.1635 37.9795 34.1381 37.9168 34.1109 37.8549L34.0969 37.8239V37.7899C34.0969 37.4429 34.0909 37.1959 34.0839 36.9579C34.0789 36.7579 34.0729 36.5579 34.0719 36.2989C32.7445 36.5173 31.3879 36.4861 30.0719 36.2069C30.1295 37.1832 30.1054 38.1626 29.9999 39.1349C29.9924 39.3017 29.9426 39.4639 29.8551 39.6061C29.7676 39.7483 29.6454 39.866 29.4999 39.9479C28.8922 40.2951 28.1993 40.4652 27.4999 40.4389V40.4389ZM25.5309 39.1209H25.5669L25.5969 39.2349C25.6574 39.4117 25.7617 39.5702 25.9 39.6957C26.0383 39.8213 26.2062 39.9098 26.3879 39.9529C27.3586 40.249 28.4064 40.1561 29.3099 39.6939C29.421 39.6373 29.5145 39.5516 29.5806 39.4459C29.6467 39.3402 29.6827 39.2185 29.6849 39.0939C29.7894 38.1054 29.8078 37.1096 29.7399 36.1179L29.6549 36.0939L29.9999 35.4049L30.0409 35.8679C31.4113 36.1709 32.828 36.2008 34.2099 35.9559L34.3909 35.9319V36.1139C34.3909 36.4609 34.3969 36.7079 34.4039 36.9459C34.4109 37.1839 34.4159 37.4189 34.4169 37.7529C34.4419 37.8119 34.4639 37.8689 34.4859 37.9249C34.5212 38.0297 34.5678 38.1303 34.6249 38.2249C34.765 38.4395 34.9782 38.5958 35.2249 38.6649C35.2965 38.6757 35.3693 38.6757 35.4409 38.6649C35.5219 38.6553 35.6034 38.651 35.6849 38.6519H35.7449L35.7889 38.6929C35.8429 38.7429 35.8969 38.7929 35.9509 38.8529C36.0793 39.0033 36.2355 39.1276 36.4109 39.2189C36.8502 39.3903 37.3228 39.4592 37.7928 39.4204C38.2628 39.3816 38.7177 39.2361 39.1229 38.9949C39.5109 38.7209 39.5059 38.3449 39.4999 37.8679V37.7809C39.4999 37.2809 39.4819 36.7809 39.4669 36.2879C39.4379 35.3009 39.4079 34.2809 39.4669 33.2799V33.2139L39.5169 33.1699C40.1063 32.3408 40.4822 31.3791 40.6111 30.37C40.74 29.3609 40.618 28.3356 40.2559 27.3849C40.2085 27.2917 40.1664 27.1959 40.1299 27.0979C40.0897 26.9692 40.0214 26.851 39.9299 26.7519L39.6889 26.4929L40.0419 26.4829C40.6959 26.4649 41.2299 26.4739 41.7479 26.4829C42.2659 26.4919 42.7929 26.5009 43.4389 26.4829H43.4859L43.5259 26.5079C43.7866 26.6492 44.0687 26.7468 44.3609 26.7969C44.4429 26.8159 44.5239 26.8339 44.6029 26.8539C44.7344 26.813 44.8502 26.7326 44.9344 26.6237C45.0187 26.5147 45.0674 26.3825 45.0739 26.2449C45.093 25.9613 45.0735 25.6763 45.0159 25.3979C45.0019 25.3369 44.9749 25.2229 44.5999 25.2809C44.4628 25.3079 44.3323 25.3615 44.2159 25.4389L44.1589 25.4709C43.9589 25.5859 43.7279 25.7249 43.5279 25.8499L43.4999 25.8699H43.4569C42.0306 25.9283 40.6022 25.9026 39.1789 25.7929H39.1369L39.0999 25.7669C37.7185 24.8611 36.1694 24.2417 34.5443 23.9454C32.9192 23.6491 31.2511 23.6819 29.6389 24.0419L29.5389 24.0599L29.4799 23.9799C28.7329 22.9599 27.1459 23.7529 25.9869 24.3319C25.6801 24.496 25.3627 24.6397 25.0369 24.7619L25.0049 24.7719H24.9719C23.6345 24.6399 22.2846 24.7195 20.9719 25.0079C19.8509 25.2719 19.7719 25.4079 19.4249 26.5819C18.4195 30.1869 18.0806 33.9452 18.4249 37.6719C18.4271 37.9848 18.5164 38.291 18.6829 38.5559C18.8006 38.7315 18.953 38.8811 19.1306 38.9956C19.3083 39.1101 19.5074 39.1871 19.7159 39.2219C19.794 39.227 19.8722 39.2134 19.944 39.1823C20.0158 39.1512 20.0792 39.1034 20.1289 39.0429C20.2041 38.9787 20.2607 38.8954 20.2927 38.8018C20.3247 38.7082 20.331 38.6078 20.3109 38.5109C20.3109 38.4619 20.3049 38.4109 20.3039 38.3469C20.2886 37.9729 20.2552 37.5998 20.2039 37.2289C20.1454 36.8172 20.1163 36.4018 20.1169 35.9859C20.1023 35.409 20.1872 34.834 20.3679 34.2859C20.5758 33.6444 21.0188 33.1053 21.6079 32.7769C21.8166 32.6303 22.0615 32.5434 22.316 32.5258C22.5705 32.5082 22.8249 32.5604 23.0519 32.6769C24.2749 33.4099 24.2519 36.5669 24.2419 37.9149V38.0819C24.3578 38.2559 24.5112 38.4017 24.6908 38.5086C24.8704 38.6156 25.0717 38.6809 25.2799 38.6999C25.3067 38.6969 25.3337 38.6994 25.3595 38.7071C25.3853 38.7149 25.4092 38.7277 25.4299 38.7449C25.4661 38.7855 25.4936 38.833 25.5108 38.8846C25.528 38.9362 25.5345 38.9907 25.5299 39.0449C25.5282 39.0702 25.5285 39.0956 25.5309 39.1209V39.1209Z" fill="#373435"/>
<path d="M34.5718 35.9461C34.8927 35.9151 35.2096 35.8518 35.5178 35.7571C35.6726 36.6647 35.7186 37.5876 35.6548 38.5061C35.4213 38.5208 35.1887 38.4656 34.9867 38.3475C34.7847 38.2294 34.6225 38.0538 34.5208 37.8431C34.4692 37.2108 34.4863 36.5747 34.5718 35.9461V35.9461Z" fill="#6978AB"/>
<path d="M35.6218 38.666C35.3645 38.6748 35.1102 38.6086 34.8898 38.4757C34.6693 38.3427 34.4922 38.1487 34.3798 37.917L34.3648 37.889V37.857C34.3126 37.213 34.33 36.5653 34.4168 35.925L34.4328 35.801L34.5568 35.787C34.8671 35.7568 35.1736 35.6959 35.4718 35.605L35.6358 35.552L35.6758 35.72C35.8263 36.5389 35.8756 37.3731 35.8228 38.204L35.8148 38.663H35.6608L35.6218 38.666ZM34.6778 37.796C34.756 37.95 34.8727 38.0811 35.0165 38.1767C35.1604 38.2722 35.3266 38.3288 35.4988 38.341V38.197C35.5419 37.4495 35.5084 36.6996 35.3988 35.959C35.1744 36.018 34.9462 36.0615 34.7158 36.089C34.646 36.6566 34.633 37.2298 34.6768 37.8L34.6778 37.796Z" fill="#373435"/>
<path d="M20.052 38.683C19.827 37.209 19.598 34.608 20.652 33.368C20.7354 33.2556 20.8255 33.1484 20.922 33.047C22.585 31.481 24.034 32.828 24.427 34.562C24.5103 35.6583 24.5273 36.7586 24.478 37.857C24.5762 38.0481 24.7278 38.2065 24.9144 38.313C25.101 38.4195 25.3145 38.4695 25.529 38.457C25.682 38.773 25.641 39.008 25.815 39.217C26.1452 39.5877 26.5784 39.8517 27.0593 39.9753C27.5401 40.0989 28.0469 40.0765 28.515 39.911C28.8282 39.7782 29.1331 39.6266 29.428 39.457C29.6667 38.1156 29.6327 36.7399 29.328 35.412C29.328 35.228 29.267 35.106 29.267 34.922C29.3814 34.9384 29.489 34.9862 29.578 35.06C29.378 35.794 32.134 36.299 35.349 35.412C35.385 35.284 35.323 35.126 35.4 35.08C35.4497 35.0489 35.5057 35.0291 35.5639 35.022C35.6221 35.0149 35.6812 35.0207 35.737 35.039C35.752 35.274 35.757 35.503 35.773 35.739C36.0223 35.7625 36.2731 35.7658 36.523 35.749C36.3589 35.8965 36.1433 35.9734 35.923 35.963C35.979 35.963 35.892 36.07 35.943 36.08C36.091 36.116 36.372 36.06 36.489 36.111C36.27 36.239 36.025 36.167 35.877 36.311C35.913 37.091 35.933 37.928 35.964 38.711C36.4462 39.077 37.0414 39.2627 37.6462 39.2356C38.2511 39.2086 38.8273 38.9706 39.275 38.563C39.3705 36.9962 39.3371 35.4243 39.175 33.863C39.058 33.848 38.94 33.827 38.823 33.812C40.65 31.354 41.002 28.839 39.471 26.569C39.456 26.469 39.389 26.369 39.371 26.269C40.703 26.218 42.071 26.356 43.407 26.305C43.7676 26.4416 44.1398 26.5456 44.519 26.616C44.912 26.478 44.983 25.387 44.596 25.509C44.209 25.631 43.996 25.876 43.581 26.029C42.05 26.029 40.351 25.968 38.821 25.968C37.5719 24.9742 36.0926 24.3111 34.5196 24.0401C32.9466 23.769 31.3306 23.8986 29.821 24.417C30.2859 25.4182 30.5483 26.5015 30.5929 27.6045C30.6375 28.7075 30.4635 29.8085 30.081 30.844C29.994 31.13 28.673 31.966 29.754 31.053C30.846 30.125 30.162 23.678 28.82 23.667C27.2408 23.6834 25.7248 24.2898 24.57 25.367C24.361 25.143 24.376 25.234 24.47 24.918C23.3278 24.8196 22.1773 24.9212 21.07 25.218C20.783 25.2271 20.5054 25.3226 20.2735 25.4919C20.0416 25.6612 19.8661 25.8965 19.77 26.167C18.7608 29.7735 18.3553 33.5221 18.57 37.261C18.6225 37.7093 18.7411 38.1474 18.922 38.561C19.522 39.219 19.846 39.03 20.045 38.683H20.052Z" fill="url(#paint0_linear_224_155)"/>
<path d="M22.4459 26.4219C22.1094 26.2847 21.7441 26.2335 21.3829 26.2729C21.3497 26.2693 21.3164 26.2773 21.2885 26.2955C21.2606 26.3138 21.2398 26.3411 21.2299 26.3729C21.2164 26.396 21.2077 26.4214 21.2043 26.4479C21.2009 26.4743 21.2028 26.5012 21.2099 26.5269C21.2409 26.6139 21.2459 26.6089 21.3219 26.6269C21.4225 26.6419 21.5253 26.633 21.6219 26.6009C21.736 26.5408 21.862 26.5064 21.9909 26.5002C22.1198 26.4939 22.2484 26.516 22.3679 26.5649C22.4799 26.5599 22.4909 26.5139 22.4549 26.4259L22.4459 26.4219Z" fill="#373435"/>
<path d="M21.4059 26.791C21.3663 26.7911 21.3267 26.7871 21.2879 26.779H21.2749C21.222 26.7736 21.1722 26.7512 21.1331 26.7152C21.094 26.6791 21.0676 26.6313 21.0579 26.579C21.0438 26.532 21.0393 26.4826 21.0446 26.4339C21.05 26.3851 21.065 26.3379 21.0889 26.295C21.1121 26.2397 21.1516 26.1929 21.2022 26.1607C21.2528 26.1285 21.312 26.1126 21.3719 26.115C21.7452 26.0755 22.1226 26.1266 22.4719 26.264H22.5539L22.5949 26.364C22.6179 26.4017 22.6299 26.4451 22.6295 26.4893C22.6291 26.5334 22.6164 26.5766 22.5928 26.6139C22.5692 26.6513 22.5357 26.6813 22.4959 26.7005C22.4562 26.7198 22.4118 26.7276 22.3679 26.723H22.3439L22.3169 26.715C22.2184 26.6724 22.1117 26.6522 22.0044 26.656C21.8972 26.6598 21.7921 26.6875 21.6969 26.737L21.6789 26.748L21.6589 26.753C21.5766 26.7766 21.4915 26.7893 21.4059 26.791V26.791ZM21.3619 26.468C21.4292 26.4749 21.4973 26.4681 21.5619 26.448L21.6159 26.421C21.5459 26.421 21.4749 26.421 21.4029 26.432H21.3769L21.3709 26.444C21.3666 26.4514 21.3635 26.4595 21.3619 26.468V26.468ZM21.6219 27.687C21.6676 27.5919 21.7397 27.512 21.8297 27.4569C21.9196 27.4017 22.0235 27.3737 22.1289 27.376C22.1489 27.248 22.1289 27.176 21.9649 27.176C21.732 27.2941 21.5331 27.4696 21.3869 27.686C21.303 27.8741 21.2762 28.0828 21.3099 28.286C21.3282 28.4249 21.4 28.5512 21.5099 28.638C21.6238 28.7093 21.7565 28.7444 21.8907 28.7389C22.0249 28.7334 22.1543 28.6874 22.2619 28.607C22.6199 28.398 22.9779 27.801 22.3489 27.576C22.2229 27.5514 22.0932 27.5523 21.9675 27.5785C21.8417 27.6048 21.7226 27.656 21.6169 27.729C21.6069 27.734 21.6019 27.714 21.6169 27.688L21.6219 27.687Z" fill="#373435"/>
<path d="M21.8158 28.9059C21.6672 28.9089 21.5225 28.8585 21.4078 28.7639C21.2663 28.6502 21.1745 28.486 21.1518 28.3059C21.1111 28.0679 21.146 27.8231 21.2518 27.6059C21.4118 27.3658 21.6303 27.1703 21.8868 27.0379L21.9218 27.0169H21.9598C22.0088 27.0122 22.0583 27.0183 22.1048 27.0347C22.1513 27.0511 22.1936 27.0775 22.2288 27.1119C22.259 27.1529 22.2799 27.2001 22.2899 27.25C22.2999 27.2999 22.2989 27.3515 22.2868 27.4009C22.4226 27.4215 22.549 27.4824 22.6497 27.5759C22.7503 27.6694 22.8204 27.791 22.8508 27.9249C22.845 28.0945 22.7951 28.2595 22.706 28.4039C22.6169 28.5482 22.4917 28.6668 22.3428 28.7479C22.184 28.8458 22.0022 28.9002 21.8158 28.9059V28.9059ZM21.4928 27.8399C21.4558 27.9809 21.4476 28.1278 21.4688 28.2719C21.4828 28.3704 21.5349 28.4594 21.6138 28.5199C21.8068 28.6809 22.1198 28.5089 22.1808 28.4729C22.277 28.4215 22.3593 28.3475 22.4206 28.2573C22.4819 28.1671 22.5204 28.0633 22.5328 27.9549C22.5238 27.8549 22.4438 27.7829 22.2958 27.7299C22.0878 27.6986 21.8756 27.7479 21.7028 27.8679L21.6898 27.8749L21.5828 27.9289L21.4948 27.8399H21.4928Z" fill="#373435"/>
<path d="M21.9002 28.3811C21.9023 28.4175 21.9094 28.4535 21.9212 28.4881C21.9264 28.5042 21.9334 28.5196 21.9422 28.5341C21.913 28.5535 21.8796 28.5654 21.8447 28.5689C21.8099 28.5724 21.7747 28.5673 21.7422 28.5541C21.5212 28.4541 21.5372 28.1441 21.6502 27.9761C21.7094 27.8894 21.7881 27.8179 21.88 27.7672C21.9719 27.7165 22.0744 27.688 22.1792 27.6841C22.2972 27.7451 22.3332 27.8021 22.2712 27.8171C22.2362 27.8237 22.2025 27.8359 22.1712 27.8531C22.1475 27.8637 22.1263 27.8793 22.109 27.8988C22.0918 27.9183 22.0789 27.9412 22.0712 27.9661C22.1222 27.9811 22.1482 27.9661 22.1942 27.9861V28.1451C22.1451 28.1204 22.089 28.1133 22.0352 28.1251C21.9352 28.1561 21.8962 28.2991 21.8962 28.3861L21.9002 28.3811Z" fill="#FEFEFE"/>
<path d="M22.3232 32.4589C22.6065 32.3982 22.875 32.2819 23.113 32.1167C23.351 31.9515 23.5539 31.7407 23.7098 31.4966C23.8658 31.2524 23.9718 30.9797 24.0217 30.6943C24.0715 30.4089 24.0642 30.1165 24.0002 29.8339C23.8212 29.8302 23.6458 29.7828 23.4892 29.6959C23.4792 29.6299 23.4742 29.5629 23.4632 29.4959C23.8772 29.6959 24.4632 29.7559 24.3872 29.1229C24.4432 29.1079 24.5302 29.1029 24.5872 29.0869C24.5672 29.5309 24.4872 29.5719 24.2142 29.7609C24.2928 30.245 24.2518 30.7409 24.0949 31.2056C23.9381 31.6702 23.6701 32.0895 23.3142 32.4269C23.2931 32.5658 23.3054 32.7078 23.3502 32.8409C23.2193 32.7041 23.0587 32.5994 22.8808 32.5347C22.7028 32.47 22.5124 32.4471 22.3242 32.4679L22.3232 32.4589Z" fill="#373435"/>
<path d="M23.6321 33.391L23.2321 32.949C23.1159 32.8294 22.9737 32.7383 22.8166 32.6828C22.6594 32.6273 22.4915 32.6089 22.3261 32.629H22.1641V32.349L22.2771 32.304C22.7919 32.1984 23.2454 31.8963 23.5411 31.4618C23.8369 31.0273 23.9517 30.4947 23.8611 29.977C23.6989 29.9649 23.542 29.9145 23.4031 29.83L23.3411 29.791L23.3301 29.72L23.3161 29.615L23.3041 29.521L23.2581 29.221L23.5311 29.353C23.6228 29.4119 23.7264 29.4496 23.8345 29.4635C23.9426 29.4773 24.0525 29.4669 24.1561 29.433C24.2201 29.388 24.2441 29.29 24.2271 29.142L24.2121 29.006L24.3441 28.97C24.3832 28.9602 24.423 28.9529 24.4631 28.948C24.49 28.9448 24.5167 28.9401 24.5431 28.934L24.7551 28.876L24.7451 29.095C24.7241 29.551 24.6241 29.666 24.3841 29.837C24.4466 30.3231 24.3956 30.817 24.2351 31.2801C24.0746 31.7432 23.809 32.1628 23.4591 32.506C23.4593 32.5912 23.471 32.6759 23.4941 32.758L23.6321 33.391ZM22.9321 32.383C23.0048 32.4062 23.0751 32.4364 23.1421 32.473C23.1451 32.4389 23.1521 32.4054 23.1631 32.373L23.1741 32.341L23.1971 32.316C23.2824 32.2246 23.3614 32.133 23.4341 32.041C23.2804 32.1739 23.112 32.2886 22.9321 32.383Z" fill="#373435"/>
<path d="M38.1571 39.2129C38.1321 38.8359 38.0861 38.5049 38.0751 38.1269C38.0501 37.2609 37.3921 37.0719 37.3561 37.9379C37.3361 38.3919 37.3561 38.8199 37.3561 39.2479C37.623 39.2844 37.8943 39.2726 38.1571 39.2129V39.2129Z" fill="#8093D0"/>
<path d="M37.7389 39.32C37.6389 39.32 37.5449 39.314 37.4499 39.308L37.2999 39.3V38.825C37.2999 38.539 37.2909 38.243 37.2999 37.938C37.3189 37.485 37.4999 37.324 37.6609 37.324C37.8739 37.324 38.1079 37.607 38.1239 38.124C38.1299 38.355 38.1499 38.566 38.1699 38.789C38.1829 38.925 38.1949 39.063 38.2049 39.207V39.25L38.1639 39.262C38.0257 39.3013 37.8826 39.3208 37.7389 39.32V39.32ZM37.4099 39.2H37.4579C37.6724 39.2252 37.8896 39.2154 38.1009 39.171C38.0919 39.043 38.0799 38.92 38.0689 38.799C38.0479 38.574 38.0289 38.362 38.0219 38.127C38.0089 37.696 37.8219 37.427 37.6649 37.427C37.5569 37.427 37.4259 37.561 37.4099 37.939C37.3959 38.239 37.4009 38.539 37.4099 38.82C37.4079 38.948 37.4099 39.073 37.4099 39.2Z" fill="#373435"/>
<path d="M37.368 39.2569C37.2954 38.8219 37.2683 38.3805 37.287 37.9399C37.343 37.1399 36.587 36.2969 36.536 37.7819C36.5175 38.2159 36.5346 38.6507 36.587 39.0819C36.8424 39.1604 37.1036 39.2189 37.368 39.2569V39.2569Z" fill="#8093D0"/>
<path d="M37.429 39.3211L37.36 39.3101C37.0925 39.2726 36.8283 39.2141 36.57 39.1351L36.538 39.1241V39.0911C36.4851 38.6566 36.468 38.2184 36.487 37.7811C36.503 37.3021 36.587 37.0181 36.75 36.9361C36.7872 36.9175 36.8289 36.9098 36.8703 36.9139C36.9117 36.918 36.9511 36.9336 36.984 36.9591C37.1148 37.0852 37.2153 37.2394 37.2778 37.4101C37.3404 37.5807 37.3633 37.7633 37.345 37.9441C37.3224 38.3303 37.3409 38.7178 37.4 39.1001L37.429 39.3211ZM36.635 39.0441C36.855 39.1094 37.0791 39.1596 37.306 39.1941L37.296 39.1111C37.2342 38.723 37.2131 38.3296 37.233 37.9371C37.2499 37.775 37.2307 37.6111 37.1765 37.4574C37.1224 37.3036 37.0348 37.1638 36.92 37.0481C36.9028 37.0335 36.8819 37.024 36.8596 37.0208C36.8373 37.0177 36.8145 37.0209 36.794 37.0301C36.739 37.0581 36.609 37.1891 36.588 37.7841C36.5701 38.2047 36.5858 38.626 36.635 39.0441V39.0441Z" fill="#373435"/>
<path d="M36.5881 39.1499L36.4811 37.4499C36.4041 36.1809 35.8941 36.3289 35.8531 37.3739C35.8331 37.8679 35.8731 38.1379 35.8271 38.6329C36.0671 38.7959 36.3171 39.1169 36.5881 39.1429V39.1499Z" fill="#8093D0"/>
<path d="M36.583 39.2001C36.369 39.1478 36.1757 39.0325 36.028 38.8691C35.9551 38.8019 35.8783 38.7392 35.798 38.6811L35.772 38.6631V38.6321C35.7929 38.3927 35.7999 38.1523 35.793 37.9121V37.3761C35.814 36.8431 35.955 36.4971 36.152 36.4951C36.352 36.4951 36.49 36.8521 36.526 37.4511L36.633 39.1511H36.579L36.583 39.2001ZM35.883 38.6111C35.955 38.6631 36.027 38.7271 36.098 38.7891C36.2203 38.9154 36.3674 39.0152 36.53 39.0821L36.43 37.4581C36.392 36.8291 36.249 36.6021 36.162 36.6021C36.072 36.6021 35.929 36.8511 35.909 37.3811C35.9 37.5811 35.903 37.7521 35.909 37.9121C35.9129 38.1447 35.9042 38.3774 35.883 38.6091V38.6111Z" fill="#373435"/>
<path d="M27.8649 40.0281C27.8785 39.6301 27.8581 39.2316 27.8039 38.8371C27.5899 37.9171 27.3199 37.8041 27.0039 38.4841V40.0121C27.2897 40.0512 27.5793 40.0545 27.8659 40.0221L27.8649 40.0281Z" fill="#8093D0"/>
<path d="M27.5418 40.1C27.3758 40.1 27.2098 40.085 27.0468 40.07L26.9468 40.061V38.461C27.0998 38.132 27.2468 37.979 27.3948 37.995C27.5768 38.014 27.7208 38.277 27.8478 38.824L27.8578 38.911C27.907 39.2815 27.9248 39.6555 27.9108 40.029H27.8588L27.8658 40.075C27.7586 40.0918 27.6503 40.1002 27.5418 40.1V40.1ZM27.0558 39.964C27.3069 39.9962 27.5607 40.0006 27.8128 39.977C27.8227 39.6252 27.8047 39.273 27.7588 38.924L27.7498 38.843C27.6038 38.216 27.4618 38.109 27.3908 38.102C27.3358 38.102 27.2228 38.141 27.0558 38.497V39.964Z" fill="#373435"/>
<path d="M26.2999 39.776C26.3049 39.19 26.3099 38.802 26.3099 38.216C26.5239 37.354 26.7429 37.441 26.9569 38.476C26.9619 39.032 26.9669 39.394 26.9669 39.949C26.7329 39.9398 26.5034 39.8809 26.2939 39.776H26.2999Z" fill="#8093D0"/>
<path d="M27.0169 40.0091L26.9269 39.9991C26.6958 39.9879 26.4698 39.9275 26.2639 39.8221L26.0889 39.7221H26.2429V39.4221C26.2429 39.0121 26.2499 38.6731 26.2499 38.2111V38.1981C26.3579 37.7641 26.4639 37.5701 26.5949 37.5701C26.6949 37.5701 26.8359 37.6751 26.9949 38.4601V38.8061C26.9949 39.1911 27.0019 39.5061 27.0019 39.9451L27.0169 40.0091ZM26.3499 39.7471C26.526 39.83 26.7165 39.8782 26.9109 39.8891C26.9109 39.4831 26.9109 39.1781 26.9039 38.8111V38.4761C26.7469 37.7231 26.6269 37.6821 26.6039 37.6821C26.5809 37.6821 26.4949 37.6941 26.3629 38.2221C26.3629 38.6811 26.3629 39.0221 26.3559 39.4281L26.3499 39.7471Z" fill="#373435"/>
<path d="M25.5002 38.623C25.5312 38.133 25.6332 37.638 25.6632 37.148C25.4632 36.178 25.2452 36.005 25.0162 36.638C25.0062 37.266 25.0012 37.899 24.9912 38.527C25.1425 38.6235 25.3247 38.6593 25.5012 38.627L25.5002 38.623Z" fill="#8093D0"/>
<path d="M25.3729 38.7C25.2508 38.6937 25.1318 38.6595 25.0249 38.6L24.9409 38.562V38.527C24.9463 38.213 24.9506 37.8983 24.9539 37.583C24.9573 37.2677 24.9616 36.9527 24.9669 36.638V36.621C25.0669 36.334 25.1729 36.205 25.2929 36.213C25.4129 36.221 25.5519 36.334 25.7169 37.139V37.153C25.7019 37.4 25.6679 37.653 25.6349 37.894C25.6019 38.135 25.5689 38.384 25.5539 38.626V38.672L25.5119 38.681C25.4664 38.6921 25.4198 38.6985 25.3729 38.7V38.7ZM25.0489 38.5L25.0689 38.509C25.1847 38.5781 25.32 38.607 25.4539 38.591C25.4699 38.356 25.5019 38.117 25.5339 37.886C25.5659 37.655 25.5989 37.4 25.6149 37.159C25.4579 36.396 25.3259 36.328 25.2889 36.325C25.2689 36.325 25.1889 36.342 25.0739 36.655C25.0686 36.9657 25.0643 37.2773 25.0609 37.59C25.0576 37.9027 25.0536 38.2033 25.0489 38.492V38.5Z" fill="#373435"/>
<path d="M35.0212 38.468C35.0622 37.947 35.0062 37.513 35.0212 37.003C35.0362 36.385 35.6472 36.564 35.6732 37.131C35.6992 37.698 35.7292 37.989 35.7602 38.555C35.5126 38.5969 35.2581 38.5667 35.0272 38.468H35.0212Z" fill="#8093D0"/>
<path d="M35.4628 38.6181C35.3064 38.6235 35.1512 38.5891 35.0118 38.5181H34.9678V38.4611C34.9856 38.1827 34.9876 37.9036 34.9738 37.6251C34.9678 37.4251 34.9608 37.2181 34.9678 36.9991C34.9758 36.6771 35.1348 36.5611 35.2808 36.5601C35.4808 36.5601 35.7078 36.7751 35.7228 37.1261C35.7378 37.4151 35.7528 37.6261 35.7668 37.8471C35.7808 38.0681 35.7948 38.2701 35.8098 38.5471V38.6011L35.6548 38.6071C35.5911 38.6147 35.5269 38.6184 35.4628 38.6181ZM35.0758 38.4341C35.2588 38.5097 35.4588 38.5346 35.6548 38.5061H35.7028C35.6907 38.29 35.6773 38.074 35.6628 37.8581C35.6488 37.6411 35.6348 37.4251 35.6188 37.1351C35.6028 36.8451 35.4358 36.6701 35.2828 36.6701C35.1578 36.6701 35.0828 36.7971 35.0748 37.0061C35.0668 37.2151 35.0748 37.4271 35.0808 37.6261C35.0931 37.8953 35.0914 38.165 35.0758 38.4341V38.4341Z" fill="#373435"/>
<path d="M34.989 38.487C34.974 38.105 34.979 37.646 34.964 37.264C35 36.739 34.638 35.964 34.496 36.826C34.4509 37.1452 34.4239 37.4667 34.415 37.789C34.5798 38.0422 34.7724 38.2763 34.989 38.487V38.487Z" fill="#B9C5EA"/>
<path d="M35.046 38.595L34.957 38.531C34.7811 38.3758 34.6273 38.1971 34.5 38C34.4585 37.9412 34.4158 37.8831 34.372 37.826L34.359 37.81V37.79C34.366 37.69 34.371 37.59 34.375 37.51C34.3826 37.2795 34.4046 37.0497 34.441 36.822C34.459 36.71 34.515 36.37 34.694 36.392C34.894 36.416 35.037 36.95 35.015 37.272C35.023 37.458 35.025 37.672 35.028 37.879C35.031 38.086 35.033 38.299 35.041 38.489L35.046 38.595ZM34.468 37.773C34.503 37.818 34.543 37.873 34.587 37.935C34.6907 38.088 34.806 38.2328 34.932 38.368C34.932 38.21 34.925 38.041 34.923 37.877C34.923 37.671 34.918 37.457 34.91 37.267C34.935 36.895 34.77 36.504 34.683 36.494C34.664 36.488 34.595 36.548 34.547 36.835C34.5112 37.0587 34.4895 37.2845 34.482 37.511L34.468 37.772V37.773ZM30.443 31.459C30.703 30.219 30.958 28.979 31.218 27.734C31.259 27.443 31.335 27.183 31.641 27.157H32.013C32.237 27.157 32.365 27.29 32.385 27.557L32.309 28.108C32.319 28.333 32.457 28.46 32.732 28.481C33.104 28.496 33.482 28.517 33.854 28.532C34.415 28.568 34.792 28.808 34.754 29.507L34.402 31.354C34.3957 31.4967 34.3473 31.6343 34.2629 31.7496C34.1786 31.8649 34.0621 31.9527 33.928 32.002C33.76 31.992 33.571 32.012 33.403 32.002C33.112 32.017 32.944 31.91 33.051 31.527C33.158 31.042 33.291 30.435 33.403 29.95C33.444 29.373 33.23 29.343 33.003 29.302C32.809 29.276 32.621 29.302 32.427 29.276C32.141 29.317 32.034 29.592 31.953 29.899C31.831 30.414 31.703 30.93 31.581 31.45C31.525 31.731 31.464 31.914 31.255 32.001H30.633C30.3984 31.9496 30.3317 31.766 30.433 31.45L30.443 31.459Z" fill="#373435"/>
<path d="M33.5088 32.11H33.3998C33.3247 32.1226 33.2476 32.1168 33.1753 32.0929C33.103 32.069 33.0376 32.0278 32.9848 31.973C32.9405 31.9032 32.9138 31.8237 32.907 31.7413C32.9002 31.6589 32.9135 31.5761 32.9458 31.5L33.0068 31.222C33.0998 30.8 33.2068 30.329 33.2948 29.936C33.3258 29.471 33.2008 29.448 32.9948 29.41C32.8088 29.385 32.6298 29.41 32.4298 29.386C32.2298 29.422 32.1388 29.621 32.0568 29.928L31.8908 30.617L31.6848 31.477C31.6168 31.765 31.5618 31.991 31.2958 32.102L31.2758 32.11H30.6098C30.5532 32.1007 30.4993 32.0794 30.4517 32.0475C30.404 32.0156 30.3638 31.9738 30.3338 31.925C30.2988 31.8463 30.2808 31.7611 30.2808 31.675C30.2808 31.5888 30.2988 31.5037 30.3338 31.425L30.3668 31.325L30.7668 29.386L31.1118 27.725C31.1398 27.525 31.1988 27.1 31.6308 27.064H32.0118C32.1758 27.064 32.4568 27.128 32.4898 27.564V27.575L32.4128 28.127C32.4198 28.24 32.4668 28.369 32.7368 28.389L33.2978 28.414L33.8548 28.439C33.9971 28.4256 34.1406 28.4454 34.2741 28.4967C34.4076 28.548 34.5274 28.6294 34.6242 28.7346C34.721 28.8399 34.7921 28.966 34.8321 29.1033C34.8721 29.2406 34.8799 29.3852 34.8548 29.526V29.54L34.5028 31.388C34.4929 31.549 34.4363 31.7036 34.3398 31.8329C34.2434 31.9623 34.1113 32.0606 33.9598 32.116L33.9398 32.123H33.6648C33.6138 32.108 33.5608 32.11 33.5088 32.11V32.11ZM33.4008 31.894H33.9098C34.0207 31.8479 34.116 31.7709 34.1842 31.6721C34.2525 31.5733 34.2909 31.457 34.2948 31.337L34.6458 29.493C34.6768 28.931 34.4378 28.675 33.8458 28.638L33.2898 28.613L32.7268 28.587C32.2868 28.554 32.2088 28.276 32.2018 28.113V28.1L32.2778 27.551C32.2548 27.295 32.1238 27.262 32.0128 27.262H31.6408C31.4568 27.278 31.3708 27.405 31.3228 27.747L30.9758 29.415C30.8331 30.1036 30.6898 30.7916 30.5458 31.479L30.5058 31.672L30.4938 31.66C30.4862 31.7115 30.4942 31.7641 30.5168 31.811C30.5311 31.8324 30.5496 31.8507 30.5713 31.8646C30.593 31.8786 30.6173 31.8879 30.6428 31.892H31.2298C31.3728 31.824 31.4218 31.692 31.4738 31.426L31.6808 30.561L31.8468 29.87C31.9078 29.642 32.0188 29.222 32.4098 29.17H32.4388C32.6208 29.194 32.8108 29.17 33.0148 29.196H33.0288C33.3148 29.248 33.5478 29.341 33.5048 29.955V29.972C33.4138 30.366 33.3048 30.84 33.2158 31.264L33.1528 31.548C33.1128 31.691 33.1128 31.789 33.1528 31.837C33.1928 31.885 33.3098 31.898 33.3958 31.894H33.4008Z" fill="#FEFEFE"/>
<path d="M25.6242 32.8941C25.8792 31.5721 26.1392 30.2501 26.3952 28.9331C26.3919 28.8732 26.4012 28.8134 26.4226 28.7574C26.444 28.7014 26.4769 28.6505 26.5193 28.6082C26.5617 28.5658 26.6125 28.5328 26.6685 28.5114C26.7245 28.4901 26.7844 28.4807 26.8442 28.4841H29.1922C29.4159 28.4775 29.6372 28.532 29.8323 28.6417C30.0273 28.7515 30.1887 28.9124 30.2992 29.1071C30.4564 29.3917 30.5224 29.7177 30.4882 30.0411C30.4379 30.5962 30.192 31.1155 29.7942 31.5061C29.4685 31.7811 29.0694 31.9549 28.6462 32.0061C28.2462 32.0161 27.8462 32.0211 27.4462 32.0321C27.2162 32.0121 26.9872 32.0731 26.9312 32.2571C26.8602 32.5071 26.8092 32.7571 26.7372 33.0021C26.7122 33.0572 26.6756 33.1064 26.6299 33.1461C26.5841 33.1858 26.5303 33.2151 26.4722 33.2321C26.2422 33.2371 26.0082 33.2371 25.7782 33.2421C25.5322 33.2461 25.5832 33.1001 25.6242 32.8941V32.8941ZM27.2622 30.6281C27.3282 30.2811 27.4102 29.8881 27.4712 29.5821C27.5038 29.4904 27.5651 29.4117 27.646 29.3576C27.7269 29.3036 27.823 29.2771 27.9202 29.2821C28.1623 29.2649 28.4054 29.2962 28.6352 29.3741C28.7358 29.4147 28.8267 29.4762 28.9017 29.5546C28.9768 29.633 29.0343 29.7264 29.0705 29.8287C29.1067 29.931 29.1208 30.0399 29.1118 30.148C29.1028 30.2562 29.0709 30.3612 29.0182 30.4561C28.9293 30.6231 28.8082 30.7709 28.662 30.891C28.5158 31.0112 28.3473 31.1012 28.1662 31.1561C27.9999 31.1995 27.8278 31.2167 27.6562 31.2071C27.2172 31.1611 27.1812 31.0441 27.2562 30.6251L27.2622 30.6281Z" fill="#373435"/>
<path d="M25.766 33.3481C25.7234 33.3524 25.6804 33.3469 25.6403 33.3322C25.6001 33.3175 25.5637 33.2938 25.534 33.2631C25.458 33.1721 25.484 33.0491 25.511 32.9191L25.52 32.8741C25.6607 32.1461 25.8024 31.4181 25.945 30.6901L26.288 28.9281C26.2837 28.8591 26.2938 28.79 26.3175 28.7251C26.3413 28.6602 26.3782 28.601 26.426 28.5511C26.4804 28.4941 26.5461 28.4492 26.619 28.4194C26.6919 28.3895 26.7703 28.3755 26.849 28.3781H29.192C29.4353 28.3706 29.6758 28.4302 29.8875 28.5503C30.0991 28.6704 30.2737 28.8464 30.392 29.0591C30.5579 29.361 30.6276 29.7064 30.592 30.0491C30.5399 30.6294 30.2833 31.1723 29.868 31.5811L29.856 31.5921C29.5153 31.8788 29.0982 32.0599 28.656 32.1131C28.45 32.1191 28.249 32.1221 28.049 32.1261L27.449 32.1391H27.437C27.276 32.1251 27.073 32.1551 27.037 32.2891C27.001 32.4231 26.972 32.5331 26.937 32.6561C26.902 32.7791 26.875 32.9061 26.837 33.0331C26.8088 33.1044 26.7648 33.1684 26.7084 33.2204C26.6519 33.2723 26.5845 33.3109 26.511 33.3331L26.492 33.3411H26.472L26.127 33.3461L25.778 33.3511L25.766 33.3481ZM25.699 33.1281C25.7238 33.1347 25.7495 33.1371 25.775 33.1351L26.127 33.1301H26.449C26.557 33.0821 26.619 33.0301 26.636 32.9761C26.671 32.8531 26.701 32.7311 26.736 32.6081C26.771 32.4851 26.798 32.3581 26.836 32.2321C26.901 32.0181 27.136 31.9031 27.457 31.9321L28.051 31.9191L28.651 31.9061C29.0492 31.8554 29.4242 31.6908 29.731 31.4321C30.1079 31.0602 30.3413 30.5672 30.39 30.0401C30.4226 29.7357 30.3604 29.4288 30.212 29.1611C30.1083 28.9846 29.9592 28.8391 29.7801 28.7399C29.601 28.6407 29.3986 28.5914 29.194 28.5971H26.844C26.7951 28.5951 26.7463 28.6036 26.7009 28.6221C26.6556 28.6405 26.6147 28.6685 26.581 28.7041C26.5521 28.7337 26.5299 28.7692 26.5161 28.8082C26.5023 28.8473 26.4971 28.8888 26.501 28.9301V28.9601L26.155 30.7371L25.73 32.9211L25.72 32.9681C25.7048 33.022 25.698 33.078 25.7 33.1341L25.699 33.1281ZM27.751 31.3161H27.645C27.5606 31.3181 27.4767 31.3033 27.398 31.2726C27.3194 31.2419 27.2477 31.1958 27.187 31.1371C27.098 31.0181 27.106 30.8601 27.152 30.6091L27.188 30.4091L27.195 30.4161C27.23 30.2371 27.268 30.0531 27.303 29.8801L27.376 29.5371C27.4175 29.4259 27.4935 29.331 27.5928 29.2663C27.6921 29.2015 27.8096 29.1702 27.928 29.1771C28.1805 29.1601 28.4339 29.1942 28.673 29.2771C28.7786 29.3149 28.8751 29.3744 28.9564 29.4517C29.0377 29.5291 29.1019 29.6225 29.145 29.7261C29.1926 29.8508 29.2144 29.9838 29.2093 30.1171C29.2041 30.2505 29.1721 30.3814 29.115 30.5021L29.108 30.5151C29.0126 30.693 28.883 30.8504 28.7267 30.9783C28.5704 31.1061 28.3904 31.2019 28.197 31.2601C28.0505 31.295 27.9006 31.3137 27.75 31.3161H27.751ZM27.338 30.8041C27.3224 30.8712 27.3298 30.9416 27.359 31.0041C27.394 31.0501 27.492 31.0801 27.667 31.0991C27.8273 31.107 27.9878 31.0905 28.143 31.0501C28.3092 30.9992 28.4637 30.916 28.5977 30.8053C28.7318 30.6946 28.8426 30.5586 28.924 30.4051C28.9679 30.3117 28.9927 30.2106 28.997 30.1076C29.0013 30.0046 28.985 29.9017 28.949 29.8051C28.9166 29.7286 28.8687 29.6597 28.8083 29.6027C28.7478 29.5458 28.6762 29.5019 28.598 29.4741C28.3813 29.401 28.1521 29.3721 27.924 29.3891C27.8484 29.3828 27.7728 29.4021 27.7094 29.4438C27.646 29.4855 27.5983 29.5472 27.574 29.6191L27.513 29.9191C27.465 30.1551 27.413 30.4121 27.368 30.6481L27.338 30.8041Z" fill="#FEFEFE"/>
<path d="M34.5449 32.8941C34.7999 31.5721 35.0599 30.2501 35.3159 28.9331C35.3125 28.8732 35.3219 28.8134 35.3433 28.7574C35.3647 28.7014 35.3976 28.6505 35.44 28.6082C35.4824 28.5658 35.5332 28.5328 35.5892 28.5114C35.6452 28.4901 35.705 28.4807 35.7649 28.4841H38.1129C38.3366 28.4775 38.5579 28.532 38.7529 28.6417C38.948 28.7515 39.1094 28.9124 39.2199 29.1071C39.3771 29.3917 39.443 29.7177 39.4089 30.0411C39.3586 30.5962 39.1126 31.1155 38.7149 31.5061C38.3891 31.7811 37.9901 31.9549 37.5669 32.0061C37.1669 32.0161 36.7669 32.0211 36.3669 32.0321C36.1369 32.0121 35.9079 32.0731 35.8519 32.2571C35.7809 32.5071 35.7299 32.7571 35.6579 33.0021C35.6329 33.0572 35.5963 33.1064 35.5505 33.1461C35.5048 33.1858 35.451 33.2151 35.3929 33.2321C35.1629 33.2371 34.9289 33.2371 34.6989 33.2421C34.4529 33.2461 34.4999 33.1001 34.5449 32.8941V32.8941ZM36.1829 30.6281C36.2489 30.2811 36.3309 29.8881 36.3919 29.5821C36.4245 29.4904 36.4858 29.4117 36.5666 29.3576C36.6475 29.3036 36.7437 29.2771 36.8409 29.2821C37.083 29.2649 37.326 29.2962 37.5559 29.3741C37.6565 29.4147 37.7474 29.4762 37.8224 29.5546C37.8974 29.633 37.955 29.7264 37.9912 29.8287C38.0274 29.931 38.0415 30.0399 38.0325 30.148C38.0234 30.2562 37.9915 30.3612 37.9389 30.4561C37.8499 30.6231 37.7289 30.7709 37.5827 30.891C37.4365 31.0112 37.268 31.1012 37.0869 31.1561C36.9206 31.1995 36.7485 31.2167 36.5769 31.2071C36.1379 31.1611 36.1019 31.0441 36.1769 30.6251L36.1829 30.6281Z" fill="#373435"/>
<path d="M34.6869 33.3481C34.6443 33.3523 34.6014 33.3468 34.5612 33.3321C34.521 33.3174 34.4847 33.2938 34.4549 33.2631C34.3789 33.1721 34.4049 33.0491 34.4319 32.9191L34.4409 32.8741C34.5809 32.1481 34.7219 31.4227 34.8639 30.6981L35.2089 28.9281C35.2046 28.8591 35.2147 28.79 35.2384 28.7251C35.2622 28.6602 35.2991 28.601 35.3469 28.5511C35.4013 28.4941 35.467 28.4492 35.5399 28.4194C35.6128 28.3895 35.6912 28.3755 35.7699 28.3781H38.1129C38.3562 28.3706 38.5967 28.4302 38.8084 28.5503C39.02 28.6704 39.1946 28.8464 39.3129 29.0591C39.4787 29.361 39.5485 29.7064 39.5129 30.0491C39.4607 30.6294 39.2041 31.1723 38.7889 31.5811L38.7769 31.5921C38.4362 31.8788 38.0191 32.0599 37.5769 32.1131C37.3709 32.1191 37.1699 32.1221 36.9699 32.1261L36.3699 32.1391H36.3579C36.1959 32.1251 35.9939 32.1551 35.9579 32.2891C35.9219 32.4231 35.8929 32.5331 35.8579 32.6551C35.8229 32.7771 35.7959 32.9061 35.7579 33.0321C35.7297 33.1034 35.6857 33.1674 35.6293 33.2194C35.5728 33.2713 35.5054 33.3099 35.4319 33.3321L35.4129 33.3401H35.3929L35.0479 33.3451L34.6989 33.3501L34.6869 33.3481ZM34.6199 33.1281C34.6447 33.1345 34.6704 33.1368 34.6959 33.1351L35.0479 33.1301H35.3699C35.4779 33.0821 35.5399 33.0301 35.5569 32.9761C35.5919 32.8531 35.6229 32.7301 35.6569 32.6081C35.6909 32.4861 35.7189 32.3591 35.7569 32.2331C35.8219 32.0191 36.0569 31.9041 36.3779 31.9331L36.9719 31.9201L37.5719 31.9071C37.9701 31.8564 38.3451 31.6918 38.6519 31.4331C39.0288 31.0612 39.2622 30.5682 39.3109 30.0411C39.3435 29.7367 39.2814 29.4297 39.1329 29.1621C39.0292 28.9856 38.8801 28.8401 38.701 28.7409C38.5219 28.6417 38.3195 28.5924 38.1149 28.5981H35.7649C35.716 28.596 35.6671 28.6044 35.6218 28.6229C35.5764 28.6413 35.5355 28.6694 35.5019 28.7051C35.473 28.7347 35.4508 28.7702 35.437 28.8092C35.4232 28.8483 35.418 28.8898 35.4219 28.9311V28.9611L35.0749 30.7461L34.6519 32.9221L34.6419 32.9691C34.6267 33.023 34.6199 33.079 34.6219 33.1351L34.6199 33.1281ZM36.6719 31.3161H36.5659C36.4815 31.3181 36.3976 31.3033 36.3189 31.2726C36.2403 31.2419 36.1686 31.1958 36.1079 31.1371C36.0189 31.0181 36.0269 30.8601 36.0729 30.6091L36.1089 30.4091L36.1159 30.4161C36.1509 30.2361 36.1889 30.0511 36.2239 29.8771L36.2969 29.5361C36.338 29.4247 36.4139 29.3295 36.5133 29.2646C36.6127 29.1998 36.7304 29.1687 36.8489 29.1761C37.1014 29.1594 37.3547 29.1934 37.5939 29.2761C37.6995 29.3139 37.796 29.3734 37.8773 29.4507C37.9586 29.5281 38.0228 29.6215 38.0659 29.7251C38.1135 29.8498 38.1353 29.9828 38.1302 30.1161C38.125 30.2495 38.093 30.3804 38.0359 30.5011L38.0289 30.5141C37.9335 30.692 37.8039 30.8494 37.6476 30.9773C37.4913 31.1051 37.3113 31.2009 37.1179 31.2591C36.9718 31.2942 36.8222 31.3133 36.6719 31.3161V31.3161ZM36.2579 30.8051C36.2423 30.8722 36.2497 30.9426 36.2789 31.0051C36.3139 31.0511 36.4119 31.0811 36.5869 31.1001C36.7472 31.108 36.9077 31.0915 37.0629 31.0511C37.2291 31.0002 37.3836 30.917 37.5176 30.8063C37.6517 30.6956 37.7625 30.5596 37.8439 30.4061C37.8878 30.3127 37.9126 30.2116 37.9169 30.1086C37.9212 30.0056 37.9049 29.9027 37.8689 29.8061C37.8365 29.7296 37.7886 29.6607 37.7282 29.6037C37.6677 29.5468 37.5961 29.5029 37.5179 29.4751C37.3012 29.4019 37.072 29.373 36.8439 29.3901C36.7683 29.384 36.6928 29.4033 36.6294 29.445C36.5661 29.4867 36.5184 29.5483 36.4939 29.6201L36.4329 29.9201C36.3849 30.1571 36.3329 30.4151 36.2879 30.6511L36.2579 30.8051Z" fill="#FEFEFE"/>
<path d="M19.4251 38.906C19.3055 38.7912 19.2044 38.6586 19.1251 38.513C19.0017 38.2883 18.9419 38.0342 18.9521 37.778C18.6921 33.345 18.9211 29.468 20.3341 26.3C20.5071 25.912 20.5341 25.795 20.8951 25.616C21.998 25.2117 23.181 25.0746 24.3471 25.216C24.3831 25.116 24.4541 25.016 24.4231 24.916C23.3678 24.8315 22.3058 24.9159 21.2771 25.166C20.5771 25.278 19.8951 25.401 19.7271 26.513C18.3151 30.252 18.4171 33.793 18.5641 37.272C18.5631 37.523 18.6008 37.7726 18.6761 38.012C18.9511 38.889 19.2171 38.859 19.4261 38.905L19.4251 38.906ZM24.8481 38.351C24.8481 37.428 24.7721 36.505 24.7721 35.578C24.7347 35.0491 24.6198 34.5285 24.4311 34.033C24.2266 33.6726 23.9924 33.3297 23.7311 33.008C24.5257 34.518 24.773 36.2564 24.4311 37.928C24.5731 38.07 24.7001 38.213 24.8481 38.351V38.351Z" fill="#EBEFFF"/>
<path d="M24.924 38.5339L24.853 38.5069C24.5862 38.3923 24.3574 38.2044 24.193 37.9649L24.124 37.8779H24.189C24.204 37.5469 24.198 37.2439 24.189 36.9499C24.183 36.6399 24.176 36.3199 24.194 35.9679V35.9089L24.253 35.9179C24.4161 35.9338 24.5703 36.0001 24.694 36.1076C24.8176 36.2152 24.9047 36.3586 24.943 36.5179V36.5339L24.93 37.4889L24.917 38.4589L24.924 38.5339ZM24.293 37.9199C24.4305 38.1113 24.6105 38.2681 24.819 38.3779C24.819 38.0619 24.827 37.7779 24.831 37.4869C24.831 37.1869 24.839 36.8799 24.844 36.5399C24.813 36.4116 24.7448 36.2953 24.6481 36.2055C24.5513 36.1157 24.4303 36.0564 24.3 36.0349C24.286 36.3589 24.292 36.6579 24.3 36.9479C24.3 37.2549 24.31 37.5719 24.293 37.9199Z" fill="#373435"/>
<path d="M26.2519 39.6569C26.0433 39.5746 25.8676 39.4259 25.7519 39.2339C25.7159 37.5859 25.6849 35.9339 25.6519 34.2849L25.9029 34.5349C25.959 34.8823 25.9848 35.234 25.9799 35.5859L26.0569 35.7859C26.0554 37.0787 26.1205 38.3708 26.2519 39.6569V39.6569Z" fill="#EBEFFF"/>
<path d="M26.335 40.0231L26.265 40.0001C25.9741 39.8977 25.7334 39.6881 25.592 39.4141L25.585 39.4001V39.3801C25.585 38.8311 25.595 38.2631 25.595 37.7071V37.6931L25.602 37.6811C25.753 37.4061 25.883 37.2291 26.025 37.2571C26.136 37.2791 26.261 37.4081 26.345 38.1921C26.345 38.7751 26.335 39.3691 26.335 39.9501V40.0231ZM25.692 39.3731C25.81 39.5951 25.9991 39.7711 26.229 39.8731C26.229 39.3161 26.234 38.7491 26.239 38.1991C26.161 37.4701 26.049 37.3701 26.005 37.3611C25.961 37.3521 25.875 37.4081 25.705 37.7201C25.7 38.2701 25.7 38.8311 25.692 39.3741V39.3731Z" fill="#373435"/>
<path d="M24.4999 34.0569C24.5029 33.9721 24.4908 33.8874 24.4639 33.8069C24.5049 33.8169 24.5459 33.8219 24.5859 33.8329L25.2329 34.3589C25.323 34.3207 25.3947 34.249 25.4329 34.1589C25.4738 34.1582 25.5143 34.1669 25.5514 34.1842C25.5885 34.2016 25.6211 34.2271 25.6469 34.2589C25.6569 34.6779 25.6269 35.0909 25.6369 35.5089C25.704 35.5662 25.7475 35.6464 25.7589 35.7339C26.0268 35.7446 26.2938 35.7703 26.5589 35.8109C26.5739 35.8769 26.5949 35.9179 26.6099 35.9849C26.3108 35.9513 26.0089 35.9513 25.7099 35.9849V36.1739C25.9444 36.1619 26.1795 36.179 26.4099 36.2249L26.4349 36.3629C26.1859 36.333 25.934 36.3364 25.6859 36.3729C25.7219 37.4019 25.7219 38.4319 25.6859 39.4609C25.6039 39.2669 25.4469 39.0779 25.3599 38.8839C25.5151 37.5641 25.5356 36.2319 25.4209 34.9079C25.1836 34.557 24.8684 34.2657 24.4999 34.0569V34.0569Z" fill="#373435"/>
<path d="M25.5442 39.5239C25.4999 39.4286 25.448 39.337 25.3892 39.2499C25.3254 39.1541 25.2686 39.0539 25.2192 38.9499L25.2002 38.9089L25.2062 38.8639C25.3577 37.5693 25.3785 36.2627 25.2682 34.9639C25.0423 34.6502 24.7518 34.3887 24.4162 34.1969L24.3262 34.1389L24.3462 34.0329C24.3465 33.9945 24.3404 33.9563 24.3282 33.9199C24.3213 33.8938 24.3153 33.8675 24.3102 33.8409L24.2642 33.5959L24.5062 33.6559L24.5582 33.6669C24.5812 33.6669 24.6052 33.6759 24.6282 33.6819L24.6622 33.6909L25.2462 34.1649C25.2633 34.1491 25.2766 34.1296 25.2852 34.1079L25.3242 34.0079H25.4352C25.502 34.0074 25.5681 34.0226 25.628 34.0524C25.688 34.0821 25.7401 34.1254 25.7802 34.1789L25.8072 34.2179V34.2659C25.8122 34.4789 25.8072 34.6929 25.8022 34.8989C25.8022 35.0819 25.7932 35.2709 25.7962 35.4569C25.8307 35.4965 25.8596 35.5405 25.8822 35.5879C26.0482 35.5949 26.2122 35.6169 26.3722 35.6369L26.5782 35.6619L26.6902 35.6749L26.7152 35.7849C26.7209 35.8093 26.7279 35.8333 26.7362 35.8569C26.7462 35.8879 26.7572 35.9199 26.7662 35.9569L26.8152 36.1689L26.5982 36.1519H26.5592L26.6322 36.5519L26.4212 36.5299C26.2322 36.5083 26.0417 36.5052 25.8522 36.5209C25.8833 37.5054 25.8833 38.4905 25.8522 39.4749L25.5442 39.5239ZM25.5302 38.8599L25.5492 38.8959V38.6769C25.5445 38.7383 25.5382 38.7993 25.5302 38.8599ZM25.3152 34.4999C25.3784 34.5675 25.4369 34.6393 25.4902 34.7149V34.3689C25.44 34.4226 25.3808 34.467 25.3152 34.4999V34.4999Z" fill="#373435"/>
<path d="M25.1211 24.964C25.5824 24.9034 26.0269 24.7507 26.4281 24.515C27.2235 24.0696 28.1107 23.813 29.0211 23.765C28.6444 23.5949 28.2207 23.5596 27.8211 23.665C26.8397 23.9032 25.9197 24.3458 25.1211 24.964V24.964ZM30.1141 24.41C32.3039 23.7796 34.64 23.885 36.7641 24.71C34.676 23.7924 32.3326 23.6342 30.1401 24.263C30.1391 24.365 30.1141 24.314 30.1141 24.41V24.41Z" fill="#EBEFFF"/>
<defs>
<linearGradient id="paint0_linear_224_155" x1="24.4391" y1="22.2614" x2="30.8148" y2="43.4936" gradientUnits="userSpaceOnUse">
<stop stop-color="#8A9FE0"/>
<stop offset="0.588" stop-color="#7182B8"/>
<stop offset="1" stop-color="#576490"/>
</linearGradient>
</defs>
</svg>
