<svg width="64" height="64" viewBox="0 0 64 64" fill="none" xmlns="http://www.w3.org/2000/svg">
<rect width="64" height="64" fill="#E3E5E8"/>
<g clip-path="url(#clip0_77_253)">
<g filter="url(#filter0_f_77_253)">
<path d="M44.5902 43.0491C44.5902 44.9316 38.8825 46.4657 31.8401 46.4657C24.7976 46.4657 19.0898 44.9416 19.0898 43.0491C19.0898 41.1664 24.7976 39.6323 31.8399 39.6323C38.8825 39.6323 44.5803 41.1664 44.5902 43.0491Z" fill="black" fill-opacity="0.2"/>
</g>
<path d="M24.8571 39.3735C23.6219 37.6004 23.3828 31.823 26.2615 28.2668C27.686 26.5636 28.0546 25.3782 28.1642 23.7744C28.2438 21.9515 26.8792 16.5228 32.019 16.1144C37.2287 15.696 36.9399 20.8359 36.9099 23.5553C36.8901 25.8463 38.5935 27.1512 39.7688 28.9443C41.9304 32.2314 41.751 37.8893 39.3604 40.9573C36.3322 44.7924 33.7424 43.1288 32.019 43.2683C28.7917 43.4576 28.6821 45.1709 24.8571 39.3735Z" fill="black"/>
<path d="M37.4279 29.283C38.3244 30.1098 40.6454 33.8053 36.9697 36.1164C35.6748 36.9232 38.1253 39.9912 39.3006 38.507C41.3825 35.8375 40.0577 31.5741 38.8026 30.05C37.9658 28.9743 36.671 28.5559 37.428 29.2831L37.4279 29.283Z" fill="url(#paint0_linear_77_253)"/>
<path d="M37.1794 28.7849C38.6536 29.9803 41.3331 34.1638 37.4185 36.8932C36.1335 37.7399 38.554 40.4195 39.9187 39.0547C44.6502 34.2934 39.7992 28.8247 38.1256 26.942C36.6315 25.2985 35.3067 27.3206 37.1794 28.7849Z" fill="black" stroke="black" stroke-width="0.10598"/>
<path d="M35.0575 18.7142C35.0077 20.0789 33.5036 21.2644 31.7007 21.374C29.8977 21.4835 28.4833 20.4476 28.533 19.0829C28.5829 17.7182 30.087 16.5327 31.89 16.4232C33.6928 16.3236 35.1073 17.3496 35.0575 18.7142Z" fill="url(#paint1_linear_77_253)"/>
<path d="M30.7441 21.9616C30.794 22.8482 30.3756 23.5952 29.7978 23.6251C29.2201 23.655 28.712 22.9677 28.6622 22.0811C28.6124 21.1946 29.0308 20.4475 29.6086 20.4177C30.1863 20.3878 30.6944 21.075 30.7441 21.9616Z" fill="url(#paint2_linear_77_253)"/>
<path d="M31.7901 22.0313C31.81 23.0573 32.4775 23.8741 33.2743 23.8542C34.0712 23.8343 34.6987 22.9875 34.6789 21.9516C34.6589 20.9256 33.9916 20.1088 33.1946 20.1288C32.3977 20.1486 31.7602 21.0053 31.7901 22.0313Z" fill="url(#paint3_linear_77_253)"/>
<path d="M32.4475 22.2605C32.4376 22.8282 32.7166 23.2864 33.085 23.2864C33.4437 23.2864 33.7525 22.8282 33.7625 22.2704C33.7723 21.7027 33.4934 21.2444 33.1249 21.2444C32.7564 21.2444 32.4575 21.7027 32.4475 22.2605ZM30.1466 22.2704C30.1964 22.7386 30.0171 23.137 29.758 23.1769C29.4991 23.2068 29.25 22.8582 29.2002 22.39C29.1503 21.9218 29.3298 21.5233 29.5887 21.4835C29.8477 21.4536 30.0968 21.8023 30.1466 22.2704Z" fill="black"/>
<path d="M32.5971 21.9416C32.5671 22.2604 32.7166 22.5194 32.9258 22.5393C33.1349 22.5593 33.3342 22.3102 33.364 22.0014C33.3939 21.6827 33.2445 21.4237 33.0353 21.4037C32.8262 21.3838 32.6269 21.6329 32.5971 21.9417V21.9416Z" fill="url(#paint4_linear_77_253)"/>
<path d="M29.9274 22.0213C29.9573 22.2804 29.8477 22.5094 29.6884 22.5293C29.5289 22.5493 29.3796 22.35 29.3496 22.0811C29.3198 21.822 29.4294 21.5929 29.5887 21.5731C29.7482 21.5531 29.8975 21.7623 29.9274 22.0213Z" fill="url(#paint5_linear_77_253)"/>
<path d="M26.7895 31.803C27.4968 30.1992 29.0009 27.3803 29.0308 25.1987C29.0308 23.4655 34.2206 23.0471 34.639 24.7805C35.0573 26.5137 36.1132 29.1035 36.7905 30.3587C37.4679 31.6037 39.4302 35.5782 37.3384 39.0446C35.4557 42.1127 29.7481 44.5432 26.6999 38.6264C25.664 36.5744 25.8532 34.0343 26.7895 31.803Z" fill="url(#paint6_linear_77_253)"/>
<path d="M26.152 30.6077C25.5444 31.7532 24.2892 34.7616 27.3573 36.4052C30.6544 38.1583 30.6444 41.7543 26.6799 40.0409C23.0542 38.497 24.6578 32.2414 25.6739 30.7472C26.3313 29.7013 27.3274 28.4163 26.152 30.6077Z" fill="url(#paint7_linear_77_253)"/>
<path d="M26.6703 29.3129C25.7041 30.8867 23.3932 34.5922 26.4911 36.5247C30.6548 39.0847 29.4794 41.6347 25.6743 39.3337C20.3152 36.1263 25.0267 29.6515 27.1684 27.1813C29.6189 24.412 27.6366 27.6892 26.6703 29.3128V29.3129Z" fill="black" stroke="black" stroke-width="0.135593"/>
<path d="M36.0533 32.4107C36.0533 34.1639 34.3699 36.4351 31.4811 36.4151C28.5028 36.435 27.2378 34.1639 27.2378 32.4107C27.2378 30.6576 29.2101 29.2332 31.6406 29.2332C34.081 29.2431 36.0533 30.6576 36.0533 32.4107Z" fill="url(#paint8_linear_77_253)"/>
<path d="M34.48 26.9021C34.4501 28.7151 33.2646 29.1434 31.7705 29.1434C30.2763 29.1434 29.1906 28.8744 29.061 26.9021C29.061 25.6669 30.2763 24.9498 31.7705 24.9498C33.2646 24.9398 34.4799 25.6571 34.4799 26.9021H34.48Z" fill="url(#paint9_linear_77_253)"/>
<path d="M25.4447 29.6912C26.421 28.207 28.4829 25.9259 25.8333 30.01C23.6817 33.3768 25.0364 35.5384 25.7337 36.136C27.7458 37.9291 27.6661 39.1342 26.0824 38.188C22.6856 36.1659 23.3928 32.7592 25.4447 29.6912Z" fill="url(#paint10_linear_77_253)"/>
<path d="M39.5798 30.2989C38.7331 28.5558 36.0435 24.133 39.7092 29.2729C43.0462 33.9247 40.7053 37.1621 40.287 37.4808C39.8687 37.7996 38.4642 38.4471 38.8725 37.3215C39.2909 36.1958 41.3628 34.0642 39.5797 30.2988L39.5798 30.2989Z" fill="url(#paint11_linear_77_253)"/>
<path d="M24.7078 44.0453C22.4764 42.8599 19.2391 44.2744 20.4146 41.0669C20.6536 40.3397 20.0659 39.244 20.4444 38.5367C20.8927 37.6701 21.8589 37.8594 22.4366 37.2817C23.0044 36.684 23.363 35.648 24.4289 35.8075C25.4848 35.9667 26.192 37.2617 26.9291 38.8555C27.4769 39.991 29.4094 41.5948 29.28 42.8698C29.1205 44.8222 26.8992 45.1908 24.7078 44.0453Z" fill="url(#paint12_linear_77_253)" stroke="#E68C3F" stroke-width="0.677966"/>
<path d="M40.9543 36.5147C40.6156 37.1522 39.2011 38.1781 38.2548 37.9092C37.2986 37.6502 36.8603 36.1959 37.0495 35.0902C37.2289 33.8551 38.2548 33.7852 39.5499 34.4029C40.9443 35.0902 41.3627 35.6679 40.9543 36.5147Z" fill="url(#paint13_linear_77_253)"/>
<path d="M40.1773 43.4973C41.8109 41.5151 45.4467 41.9235 42.9963 39.2042C42.4783 38.6164 42.6377 37.3613 42.0002 36.8235C41.2531 36.166 40.4263 36.7039 39.6693 36.3653C38.9122 35.9967 38.1154 35.2894 37.189 35.7874C36.2626 36.2955 36.163 37.6103 36.0734 39.3435C35.9936 40.5887 34.8581 42.6706 35.4657 43.8161C36.3423 45.5892 38.6234 45.3501 40.1773 43.4974V43.4973Z" fill="url(#paint14_linear_77_253)" stroke="#E68C3F" stroke-width="0.678075"/>
<path d="M39.4701 40.8476C42.0003 37.1123 40.1177 37.1421 39.4801 36.8532C38.8426 36.5544 38.1752 35.9667 37.4282 36.3751C36.681 36.7934 36.6412 37.8693 36.6213 39.2837C36.5914 40.2998 35.7448 42.0032 36.2528 42.9494C36.8703 44.0551 38.3644 42.4514 39.4701 40.8476Z" fill="url(#paint15_linear_77_253)"/>
<path d="M24.1899 41.3855C20.4046 38.9351 22.1777 38.0984 22.7455 37.7099C23.4328 37.2119 23.4428 36.2555 24.2894 36.3453C25.1362 36.4349 25.6342 37.4808 26.202 38.7757C26.6203 39.7021 28.0747 40.9373 27.9651 42.0032C27.8257 43.2582 25.8235 42.4314 24.1899 41.3855Z" fill="url(#paint16_linear_77_253)"/>
<path d="M40.7354 36.4848C40.4365 37.0028 39.2213 37.8196 38.4145 37.6004C37.5877 37.3913 37.2091 36.2258 37.3785 35.3492C37.5279 34.3531 38.4145 34.3033 39.53 34.8014C40.7154 35.3393 41.084 35.7975 40.7354 36.4848Z" fill="black"/>
<path d="M39.9184 36.1959C39.7291 36.5546 38.9323 37.1223 38.3744 36.9729C37.8166 36.8236 37.5377 36.0167 37.6273 35.4091C37.7071 34.7218 38.3047 34.6819 39.0617 35.0206C39.8785 35.3992 40.1376 35.7179 39.9184 36.1959Z" fill="url(#paint17_linear_77_253)"/>
<path d="M29.6185 23.1966C30.0169 22.828 30.9831 21.7025 32.816 22.8778C33.1547 23.0969 33.4336 23.1169 34.0811 23.3958C35.386 23.9338 34.7684 25.2286 33.3738 25.6669C32.7761 25.8562 32.2383 26.5834 31.1624 26.5136C30.2361 26.4637 29.997 25.8563 29.4292 25.5275C28.4231 24.9597 28.2738 24.1927 28.8216 23.7843C29.3695 23.3759 29.5787 23.2264 29.6185 23.1966Z" fill="url(#paint18_linear_77_253)" stroke="#E68C3F" stroke-width="0.40678"/>
<path d="M34.1012 24.2427C33.5534 24.2725 32.3679 25.4579 31.1228 25.4579C29.8777 25.4579 29.1306 24.3024 28.9414 24.3024" stroke="#E68C3F" stroke-width="0.271186"/>
<path d="M30.2364 23.0972C30.4357 22.9179 31.0632 22.4298 31.89 22.9278C32.0693 23.0275 32.2486 23.137 32.5076 23.2864C33.0355 23.5952 32.7766 24.0436 32.139 24.3223C31.8501 24.4419 31.372 24.7009 31.0134 24.6809C30.615 24.6411 30.346 24.3821 30.0871 24.2128C29.5989 23.8941 29.6289 23.6251 29.858 23.4159C30.0272 23.2565 30.2165 23.1071 30.2365 23.0972H30.2364Z" fill="url(#paint19_linear_77_253)"/>
</g>
<defs>
<filter id="filter0_f_77_253" x="17.6797" y="38.2222" width="28.3208" height="9.65359" filterUnits="userSpaceOnUse" color-interpolation-filters="sRGB">
<feFlood flood-opacity="0" result="BackgroundImageFix"/>
<feBlend mode="normal" in="SourceGraphic" in2="BackgroundImageFix" result="shape"/>
<feGaussianBlur stdDeviation="0.705085" result="effect1_foregroundBlur_77_253"/>
</filter>
<linearGradient id="paint0_linear_77_253" x1="38.4405" y1="40.4324" x2="39.0943" y2="33.1004" gradientUnits="userSpaceOnUse">
<stop stop-color="#FFEED7"/>
<stop offset="1" stop-color="#BDBFC2"/>
</linearGradient>
<linearGradient id="paint1_linear_77_253" x1="32.0829" y1="16.5359" x2="31.7708" y2="20.9283" gradientUnits="userSpaceOnUse">
<stop stop-color="white" stop-opacity="0.8"/>
<stop offset="1" stop-color="white" stop-opacity="0"/>
</linearGradient>
<linearGradient id="paint2_linear_77_253" x1="29.742" y1="23.2489" x2="29.5498" y2="20.738" gradientUnits="userSpaceOnUse">
<stop stop-color="#FFEED7"/>
<stop offset="1" stop-color="#BDBFC2"/>
</linearGradient>
<linearGradient id="paint3_linear_77_253" x1="33.232" y1="23.3139" x2="33.232" y2="20.643" gradientUnits="userSpaceOnUse">
<stop stop-color="#FFEED7"/>
<stop offset="1" stop-color="#BDBFC2"/>
</linearGradient>
<linearGradient id="paint4_linear_77_253" x1="33.0108" y1="21.4379" x2="32.8791" y2="22.462" gradientUnits="userSpaceOnUse">
<stop stop-color="white" stop-opacity="0.65"/>
<stop offset="1" stop-color="white" stop-opacity="0"/>
</linearGradient>
<linearGradient id="paint5_linear_77_253" x1="29.6126" y1="21.6243" x2="29.7543" y2="22.4536" gradientUnits="userSpaceOnUse">
<stop stop-color="white" stop-opacity="0.65"/>
<stop offset="1" stop-color="white" stop-opacity="0"/>
</linearGradient>
<linearGradient id="paint6_linear_77_253" x1="32.1371" y1="40.3596" x2="32.1371" y2="31.2183" gradientUnits="userSpaceOnUse">
<stop stop-color="#FFEED7"/>
<stop offset="1" stop-color="#BDBFC2"/>
</linearGradient>
<linearGradient id="paint7_linear_77_253" x1="27.2749" y1="40.4892" x2="24.9417" y2="32.535" gradientUnits="userSpaceOnUse">
<stop stop-color="#FFEED7"/>
<stop offset="1" stop-color="#BDBFC2"/>
</linearGradient>
<linearGradient id="paint8_linear_77_253" x1="31.6315" y1="30.1833" x2="31.6549" y2="36.0327" gradientUnits="userSpaceOnUse">
<stop stop-color="white" stop-opacity="0.8"/>
<stop offset="1" stop-color="white" stop-opacity="0"/>
</linearGradient>
<linearGradient id="paint9_linear_77_253" x1="31.7666" y1="26.5151" x2="31.7925" y2="28.8409" gradientUnits="userSpaceOnUse">
<stop stop-color="white" stop-opacity="0.65"/>
<stop offset="1" stop-color="white" stop-opacity="0"/>
</linearGradient>
<linearGradient id="paint10_linear_77_253" x1="25.4849" y1="27.9506" x2="25.4849" y2="36.4859" gradientUnits="userSpaceOnUse">
<stop stop-color="white" stop-opacity="0.65"/>
<stop offset="1" stop-color="white" stop-opacity="0"/>
</linearGradient>
<linearGradient id="paint11_linear_77_253" x1="39.648" y1="27.117" x2="39.645" y2="34.8291" gradientUnits="userSpaceOnUse">
<stop stop-color="white" stop-opacity="0.65"/>
<stop offset="1" stop-color="white" stop-opacity="0"/>
</linearGradient>
<linearGradient id="paint12_linear_77_253" x1="25.0418" y1="40.1452" x2="23.7761" y2="44.5392" gradientUnits="userSpaceOnUse">
<stop stop-color="#FFA63F"/>
<stop offset="1" stop-color="#FFFF00"/>
</linearGradient>
<linearGradient id="paint13_linear_77_253" x1="39.1521" y1="39.6439" x2="38.9713" y2="31.4816" gradientUnits="userSpaceOnUse">
<stop stop-color="#FFEED7"/>
<stop offset="1" stop-color="#BDBFC2"/>
</linearGradient>
<linearGradient id="paint14_linear_77_253" x1="37.8971" y1="38.8169" x2="41.3437" y2="43.6997" gradientUnits="userSpaceOnUse">
<stop stop-color="#FFA63F"/>
<stop offset="1" stop-color="#FFFF00"/>
</linearGradient>
<linearGradient id="paint15_linear_77_253" x1="38.8684" y1="35.0165" x2="37.6905" y2="40.7826" gradientUnits="userSpaceOnUse">
<stop stop-color="white" stop-opacity="0.65"/>
<stop offset="1" stop-color="white" stop-opacity="0"/>
</linearGradient>
<linearGradient id="paint16_linear_77_253" x1="24.7651" y1="36.4379" x2="24.9978" y2="42.9073" gradientUnits="userSpaceOnUse">
<stop stop-color="white" stop-opacity="0.65"/>
<stop offset="1" stop-color="white" stop-opacity="0"/>
</linearGradient>
<linearGradient id="paint17_linear_77_253" x1="38.6482" y1="34.912" x2="38.9209" y2="36.8479" gradientUnits="userSpaceOnUse">
<stop stop-color="white" stop-opacity="0.65"/>
<stop offset="1" stop-color="white" stop-opacity="0"/>
</linearGradient>
<linearGradient id="paint18_linear_77_253" x1="31.6365" y1="23.0889" x2="31.6592" y2="26.4929" gradientUnits="userSpaceOnUse">
<stop stop-color="#FFA63F"/>
<stop offset="1" stop-color="#FFFF00"/>
</linearGradient>
<linearGradient id="paint19_linear_77_253" x1="31.2499" y1="22.7672" x2="31.2438" y2="24.5671" gradientUnits="userSpaceOnUse">
<stop stop-color="white" stop-opacity="0.65"/>
<stop offset="1" stop-color="white" stop-opacity="0"/>
</linearGradient>
<clipPath id="clip0_77_253">
<rect width="27.77" height="32" fill="white" transform="translate(18 16)"/>
</clipPath>
</defs>
</svg>
