<svg width="64" height="64" viewBox="0 0 64 64" fill="none" xmlns="http://www.w3.org/2000/svg">
<rect width="64" height="64" fill="#E3E5E8"/>
<g clip-path="url(#clip0_77_228)">
<path d="M26.3368 47.9999C29.2808 47.9999 31.6701 45.6106 31.6701 42.6666V37.3333H26.3368C23.3928 37.3333 21.0034 39.7226 21.0034 42.6666C21.0034 45.6106 23.3928 47.9999 26.3368 47.9999Z" fill="#0ACF83"/>
<path d="M21.0034 32.0001C21.0034 29.0561 23.3928 26.6667 26.3368 26.6667H31.6701V37.3334H26.3368C23.3928 37.3334 21.0034 34.9441 21.0034 32.0001Z" fill="#A259FF"/>
<path d="M21.0034 21.3333C21.0034 18.3893 23.3928 16 26.3368 16H31.6701V26.6667H26.3368C23.3928 26.6667 21.0034 24.2773 21.0034 21.3333Z" fill="#F24E1E"/>
<path d="M31.6699 16H37.0033C39.9473 16 42.3366 18.3893 42.3366 21.3333C42.3366 24.2773 39.9473 26.6667 37.0033 26.6667H31.6699V16Z" fill="#FF7262"/>
<path d="M42.3366 32.0001C42.3366 34.9441 39.9473 37.3334 37.0033 37.3334C34.0593 37.3334 31.6699 34.9441 31.6699 32.0001C31.6699 29.0561 34.0593 26.6667 37.0033 26.6667C39.9473 26.6667 42.3366 29.0561 42.3366 32.0001Z" fill="#1ABCFE"/>
</g>
<defs>
<clipPath id="clip0_77_228">
<rect width="21.34" height="32" fill="white" transform="translate(21 16)"/>
</clipPath>
</defs>
</svg>
