<svg width="64" height="64" viewBox="0 0 64 64" fill="none" xmlns="http://www.w3.org/2000/svg">
<rect width="64" height="64" fill="#095622"/>
<path d="M10.3042 44.0001V26.7841H15.0722V31.6481L14.4002 30.2401C14.9122 29.0241 15.7335 28.1067 16.8642 27.4881C17.9949 26.8481 19.3709 26.5281 20.9922 26.5281V31.1361C20.7789 31.1147 20.5869 31.1041 20.4162 31.1041C20.2455 31.0827 20.0642 31.0721 19.8722 31.0721C18.5069 31.0721 17.3975 31.4667 16.5442 32.2561C15.7122 33.0241 15.2962 34.2294 15.2962 35.8721V44.0001H10.3042Z" fill="white"/>
<path d="M46.0397 26.5281C47.405 26.5281 48.6104 26.8054 49.6557 27.3601C50.7224 27.8934 51.5544 28.7254 52.1517 29.8561C52.7704 30.9654 53.0797 32.3947 53.0797 34.1441V44.0001H48.0877V34.9121C48.0877 33.5254 47.7997 32.5014 47.2237 31.8401C46.6477 31.1787 45.837 30.8481 44.7917 30.8481C44.0664 30.8481 43.4157 31.0187 42.8397 31.3601C42.2637 31.6801 41.8157 32.1707 41.4957 32.8321C41.1757 33.4934 41.0157 34.3361 41.0157 35.3601V44.0001H36.0237V34.9121C36.0237 33.5254 35.7357 32.5014 35.1597 31.8401C34.605 31.1787 33.805 30.8481 32.7597 30.8481C32.0344 30.8481 31.3837 31.0187 30.8077 31.3601C30.2317 31.6801 29.7837 32.1707 29.4637 32.8321C29.1437 33.4934 28.9837 34.3361 28.9837 35.3601V44.0001H23.9917V26.7841H28.7597V31.4881L27.8637 30.1121C28.461 28.9387 29.3037 28.0534 30.3917 27.4561C31.501 26.8374 32.7597 26.5281 34.1677 26.5281C35.7464 26.5281 37.1224 26.9334 38.2957 27.7441C39.4904 28.5334 40.2797 29.7494 40.6637 31.3921L38.9037 30.9121C39.4797 29.5681 40.397 28.5014 41.6557 27.7121C42.9357 26.9227 44.397 26.5281 46.0397 26.5281Z" fill="white"/>
</svg>
